<svg width="28" height="28" viewBox="0 0 28 28" fill="none" xmlns="http://www.w3.org/2000/svg">
<g clip-path="url(#clip0_315_122)">
<path d="M27.5172 23.1725H0.48278C0.216179 23.1725 0 22.9563 0 22.6897V5.31042C0 5.04382 0.216179 4.82764 0.48278 4.82764H27.5172C27.7838 4.82764 28 5.04382 28 5.31042V22.6897C27.9999 22.9563 27.7838 23.1725 27.5172 23.1725Z" fill="#F5F5F5"/>
<path d="M27.9999 6.23884H0V5.31042C0 5.04382 0.216179 4.82764 0.48278 4.82764H27.5172C27.7838 4.82764 28 5.04382 28 5.31042L27.9999 6.23884Z" fill="#FF4B55"/>
<path d="M27.9999 10.4722H0V11.8833H27.9999V10.4722Z" fill="#FF4B55"/>
<path d="M27.9999 7.64966H0V9.06081H27.9999V7.64966Z" fill="#FF4B55"/>
<path d="M27.9999 14.7056H0.48278C0.216179 14.7056 0 14.4895 0 14.2229V13.2944H27.9999V14.7056Z" fill="#FF4B55"/>
<path d="M27.9999 18.9395H0V20.3506H27.9999V18.9395Z" fill="#FF4B55"/>
<path d="M27.5172 23.1724H0.48278C0.216179 23.1724 0 22.9562 0 22.6896V21.7612H27.9999V22.6897C27.9999 22.9563 27.7838 23.1724 27.5172 23.1724Z" fill="#FF4B55"/>
<path d="M27.9999 16.1169H0V17.5281H27.9999V16.1169Z" fill="#FF4B55"/>
<path d="M12.5517 4.82764H0.48278C0.216179 4.82764 0 5.04376 0 5.31036V14.2228C0 14.4894 0.216179 14.7055 0.48278 14.7055H12.5517C12.8183 14.7055 13.0345 14.4894 13.0345 14.2228V5.31036C13.0345 5.04376 12.8183 4.82764 12.5517 4.82764Z" fill="#41479B"/>
<path d="M1.35624 5.93566L1.46309 6.25613L1.8009 6.2587C1.84465 6.25909 1.86275 6.31487 1.82759 6.34084L1.55584 6.54155L1.65778 6.8636C1.67102 6.90527 1.62349 6.93983 1.58789 6.91435L1.31309 6.71797L1.03828 6.9144C1.00268 6.93983 0.955267 6.90533 0.968392 6.86365L1.07033 6.5416L0.798588 6.3409C0.763424 6.31487 0.781525 6.25914 0.825275 6.25876L1.16308 6.25619L1.26994 5.93572C1.28372 5.89416 1.34234 5.89416 1.35624 5.93566Z" fill="#F5F5F5"/>
<path d="M1.35587 7.61214L1.46273 7.93261L1.80053 7.93518C1.84428 7.93556 1.86238 7.99134 1.82722 8.01732L1.55548 8.21802L1.65742 8.54007C1.67065 8.58175 1.62313 8.61631 1.58752 8.59082L1.31272 8.39444L1.03792 8.59088C1.00232 8.61631 0.954901 8.5818 0.968026 8.54013L1.06996 8.21807L0.798222 8.01737C0.763058 7.99134 0.781159 7.93561 0.824909 7.93523L1.16271 7.93266L1.26957 7.61219C1.28335 7.57068 1.34198 7.57068 1.35587 7.61214Z" fill="#F5F5F5"/>
<path d="M1.35587 9.28841L1.46273 9.60888L1.80053 9.61145C1.84428 9.61183 1.86238 9.66761 1.82722 9.69359L1.55548 9.89429L1.65742 10.2163C1.67065 10.258 1.62313 10.2926 1.58752 10.2671L1.31272 10.0707L1.03792 10.2671C1.00232 10.2926 0.954901 10.2581 0.968026 10.2164L1.06996 9.89434L0.798222 9.69364C0.763058 9.66761 0.781159 9.61188 0.824909 9.6115L1.16271 9.60893L1.26957 9.28846C1.28335 9.24695 1.34198 9.24695 1.35587 9.28841Z" fill="#F5F5F5"/>
<path d="M1.35587 10.965L1.46273 11.2854L1.80053 11.288C1.84428 11.2884 1.86238 11.3442 1.82722 11.3701L1.55548 11.5708L1.65742 11.8929C1.67065 11.9346 1.62313 11.9691 1.58752 11.9436L1.31272 11.7473L1.03792 11.9437C1.00232 11.9691 0.954901 11.9346 0.968026 11.893L1.06996 11.5709L0.798222 11.3702C0.763058 11.3442 0.781159 11.2884 0.824909 11.2881L1.16271 11.2855L1.26957 10.965C1.28335 10.9235 1.34198 10.9235 1.35587 10.965Z" fill="#F5F5F5"/>
<path d="M1.35587 12.6413L1.46273 12.9617L1.80053 12.9643C1.84428 12.9647 1.86238 13.0205 1.82722 13.0465L1.55548 13.2472L1.65742 13.5692C1.67065 13.6109 1.62313 13.6454 1.58752 13.62L1.31272 13.4236L1.03792 13.62C1.00232 13.6454 0.954901 13.6109 0.968026 13.5693L1.06996 13.2472L0.798222 13.0465C0.763058 13.0205 0.781159 12.9647 0.824909 12.9644L1.16271 12.9618L1.26957 12.6413C1.28335 12.5997 1.34198 12.5997 1.35587 12.6413Z" fill="#F5F5F5"/>
<path d="M2.65702 6.75765L2.76388 7.07812L3.10168 7.08069C3.14543 7.08107 3.16353 7.13685 3.12837 7.16283L2.85663 7.36353L2.95856 7.68559C2.9718 7.72726 2.92427 7.76182 2.88867 7.73634L2.61387 7.5399L2.33906 7.73634C2.30346 7.76177 2.25605 7.72726 2.26917 7.68559L2.37111 7.36353L2.09937 7.16283C2.06421 7.1368 2.08231 7.08107 2.12606 7.08069L2.46386 7.07812L2.57072 6.75765C2.58445 6.7162 2.64318 6.7162 2.65702 6.75765Z" fill="#F5F5F5"/>
<path d="M2.65702 8.43396L2.76388 8.75443L3.10168 8.757C3.14543 8.75738 3.16353 8.81316 3.12837 8.83914L2.85663 9.03984L2.95856 9.3619C2.9718 9.40357 2.92427 9.43813 2.88867 9.41265L2.61387 9.21621L2.33906 9.41265C2.30346 9.43808 2.25605 9.40362 2.26917 9.3619L2.37111 9.03984L2.09937 8.83914C2.06421 8.81311 2.08231 8.75738 2.12606 8.757L2.46386 8.75443L2.57072 8.43396C2.58445 8.39246 2.64318 8.39246 2.65702 8.43396Z" fill="#F5F5F5"/>
<path d="M2.65702 10.1105L2.76388 10.4309L3.10168 10.4335C3.14543 10.4339 3.16353 10.4897 3.12837 10.5157L2.85663 10.7164L2.95856 11.0384C2.9718 11.0801 2.92427 11.1146 2.88867 11.0892L2.61387 10.8927L2.33906 11.0892C2.30346 11.1146 2.25605 11.0801 2.26917 11.0384L2.37111 10.7164L2.09937 10.5157C2.06421 10.4896 2.08231 10.4339 2.12606 10.4335L2.46386 10.4309L2.57072 10.1105C2.58445 10.069 2.64318 10.069 2.65702 10.1105Z" fill="#F5F5F5"/>
<path d="M2.65702 11.7867L2.76388 12.1072L3.10168 12.1097C3.14543 12.1101 3.16353 12.1659 3.12837 12.1919L2.85663 12.3926L2.95856 12.7146C2.9718 12.7563 2.92427 12.7909 2.88867 12.7654L2.61387 12.569L2.33906 12.7654C2.30346 12.7908 2.25605 12.7563 2.26917 12.7146L2.37111 12.3926L2.09937 12.1919C2.06421 12.1659 2.08231 12.1101 2.12606 12.1097L2.46386 12.1072L2.57072 11.7867C2.58445 11.7453 2.64318 11.7453 2.65702 11.7867Z" fill="#F5F5F5"/>
<path d="M3.95829 5.93567L4.06515 6.25614L4.40295 6.25871C4.4467 6.25909 4.4648 6.31487 4.42964 6.34085L4.1579 6.54155L4.25983 6.86361C4.27307 6.90528 4.22554 6.93984 4.18994 6.91436L3.91514 6.71792L3.64033 6.91436C3.60473 6.93979 3.55732 6.90528 3.57044 6.86361L3.67238 6.54155L3.40064 6.34085C3.36547 6.31482 3.38358 6.25909 3.42733 6.25871L3.76513 6.25614L3.87199 5.93567C3.88577 5.89416 3.94445 5.89416 3.95829 5.93567Z" fill="#F5F5F5"/>
<path d="M3.95829 7.61214L4.06515 7.93261L4.40295 7.93518C4.4467 7.93557 4.4648 7.99135 4.42964 8.01732L4.1579 8.21803L4.25983 8.54008C4.27307 8.58175 4.22554 8.61631 4.18994 8.59083L3.91514 8.39439L3.64033 8.59083C3.60473 8.61626 3.55732 8.58175 3.57044 8.54008L3.67238 8.21803L3.40064 8.01732C3.36547 7.99129 3.38358 7.93557 3.42733 7.93518L3.76513 7.93261L3.87199 7.61214C3.88577 7.57069 3.94445 7.57069 3.95829 7.61214Z" fill="#F5F5F5"/>
<path d="M3.95829 9.28841L4.06515 9.60888L4.40295 9.61145C4.4467 9.61184 4.4648 9.66762 4.42964 9.69359L4.1579 9.8943L4.25983 10.2164C4.27307 10.258 4.22554 10.2926 4.18994 10.2671L3.91514 10.0707L3.64033 10.2671C3.60473 10.2925 3.55732 10.258 3.57044 10.2164L3.67238 9.8943L3.40064 9.69359C3.36547 9.66756 3.38358 9.61184 3.42733 9.61145L3.76513 9.60888L3.87199 9.28841C3.88577 9.24696 3.94445 9.24696 3.95829 9.28841Z" fill="#F5F5F5"/>
<path d="M3.95829 10.965L4.06515 11.2854L4.40295 11.288C4.4467 11.2884 4.4648 11.3442 4.42964 11.3701L4.1579 11.5708L4.25983 11.8929C4.27307 11.9346 4.22554 11.9691 4.18994 11.9437L3.91514 11.7472L3.64033 11.9437C3.60473 11.9691 3.55732 11.9346 3.57044 11.8929L3.67238 11.5708L3.40064 11.3701C3.36547 11.3441 3.38358 11.2884 3.42733 11.288L3.76513 11.2854L3.87199 10.965C3.88577 10.9235 3.94445 10.9235 3.95829 10.965Z" fill="#F5F5F5"/>
<path d="M3.95829 12.6413L4.06515 12.9617L4.40295 12.9643C4.4467 12.9647 4.4648 13.0205 4.42964 13.0465L4.1579 13.2472L4.25983 13.5692C4.27307 13.6109 4.22554 13.6454 4.18994 13.62L3.91514 13.4235L3.64033 13.62C3.60473 13.6454 3.55732 13.6109 3.57044 13.5692L3.67238 13.2472L3.40064 13.0465C3.36547 13.0204 3.38358 12.9647 3.42733 12.9643L3.76513 12.9617L3.87199 12.6413C3.88577 12.5997 3.94445 12.5997 3.95829 12.6413Z" fill="#F5F5F5"/>
<path d="M5.25956 6.75765L5.36641 7.07812L5.70422 7.08069C5.74797 7.08107 5.76607 7.13685 5.73091 7.16283L5.45916 7.36353L5.5611 7.68559C5.57434 7.72726 5.52681 7.76182 5.49121 7.73634L5.21641 7.5399L4.9416 7.73634C4.906 7.76177 4.85859 7.72726 4.87171 7.68559L4.97365 7.36353L4.70191 7.16283C4.66674 7.1368 4.68485 7.08107 4.7286 7.08069L5.0664 7.07812L5.17326 6.75765C5.18699 6.7162 5.24572 6.7162 5.25956 6.75765Z" fill="#F5F5F5"/>
<path d="M5.25956 8.43396L5.36641 8.75443L5.70422 8.757C5.74797 8.75738 5.76607 8.81316 5.73091 8.83914L5.45916 9.03984L5.5611 9.3619C5.57434 9.40357 5.52681 9.43813 5.49121 9.41265L5.21641 9.21621L4.9416 9.41265C4.906 9.43808 4.85859 9.40362 4.87171 9.3619L4.97365 9.03984L4.70191 8.83914C4.66674 8.81311 4.68485 8.75738 4.7286 8.757L5.0664 8.75443L5.17326 8.43396C5.18699 8.39246 5.24572 8.39246 5.25956 8.43396Z" fill="#F5F5F5"/>
<path d="M5.25956 10.1105L5.36641 10.4309L5.70422 10.4335C5.74797 10.4339 5.76607 10.4897 5.73091 10.5157L5.45916 10.7164L5.5611 11.0384C5.57434 11.0801 5.52681 11.1146 5.49121 11.0892L5.21641 10.8927L4.9416 11.0892C4.906 11.1146 4.85859 11.0801 4.87171 11.0384L4.97365 10.7164L4.70191 10.5157C4.66674 10.4896 4.68485 10.4339 4.7286 10.4335L5.0664 10.4309L5.17326 10.1105C5.18699 10.069 5.24572 10.069 5.25956 10.1105Z" fill="#F5F5F5"/>
<path d="M5.25956 11.7867L5.36641 12.1072L5.70422 12.1097C5.74797 12.1101 5.76607 12.1659 5.73091 12.1919L5.45916 12.3926L5.5611 12.7146C5.57434 12.7563 5.52681 12.7909 5.49121 12.7654L5.21641 12.569L4.9416 12.7654C4.906 12.7908 4.85859 12.7563 4.87171 12.7146L4.97365 12.3926L4.70191 12.1919C4.66674 12.1659 4.68485 12.1101 4.7286 12.1097L5.0664 12.1072L5.17326 11.7867C5.18699 11.7453 5.24572 11.7453 5.25956 11.7867Z" fill="#F5F5F5"/>
<path d="M6.56064 5.93567L6.66749 6.25614L7.0053 6.25871C7.04905 6.25909 7.06715 6.31487 7.03199 6.34085L6.76024 6.54155L6.86218 6.86361C6.87542 6.90528 6.82789 6.93984 6.79229 6.91436L6.51743 6.71792L6.24263 6.91436C6.20703 6.93979 6.15961 6.90528 6.17274 6.86361L6.27468 6.54155L6.00293 6.34085C5.96777 6.31482 5.98587 6.25909 6.02962 6.25871L6.36742 6.25614L6.47428 5.93567C6.48812 5.89416 6.5468 5.89416 6.56064 5.93567Z" fill="#F5F5F5"/>
<path d="M6.56064 7.61214L6.66749 7.93261L7.0053 7.93518C7.04905 7.93557 7.06715 7.99135 7.03199 8.01732L6.76024 8.21803L6.86218 8.54008C6.87542 8.58175 6.82789 8.61631 6.79229 8.59083L6.51743 8.39439L6.24263 8.59083C6.20703 8.61626 6.15961 8.58175 6.17274 8.54008L6.27468 8.21803L6.00293 8.01732C5.96777 7.99129 5.98587 7.93557 6.02962 7.93518L6.36742 7.93261L6.47428 7.61214C6.48812 7.57069 6.5468 7.57069 6.56064 7.61214Z" fill="#F5F5F5"/>
<path d="M6.56064 9.28841L6.66749 9.60888L7.0053 9.61145C7.04905 9.61184 7.06715 9.66762 7.03199 9.69359L6.76024 9.8943L6.86218 10.2164C6.87542 10.258 6.82789 10.2926 6.79229 10.2671L6.51743 10.0707L6.24263 10.2671C6.20703 10.2925 6.15961 10.258 6.17274 10.2164L6.27468 9.8943L6.00293 9.69359C5.96777 9.66756 5.98587 9.61184 6.02962 9.61145L6.36742 9.60888L6.47428 9.28841C6.48812 9.24696 6.5468 9.24696 6.56064 9.28841Z" fill="#F5F5F5"/>
<path d="M6.56064 10.965L6.66749 11.2854L7.0053 11.288C7.04905 11.2884 7.06715 11.3442 7.03199 11.3701L6.76024 11.5708L6.86218 11.8929C6.87542 11.9346 6.82789 11.9691 6.79229 11.9437L6.51743 11.7472L6.24263 11.9437C6.20703 11.9691 6.15961 11.9346 6.17274 11.8929L6.27468 11.5708L6.00293 11.3701C5.96777 11.3441 5.98587 11.2884 6.02962 11.288L6.36742 11.2854L6.47428 10.965C6.48812 10.9235 6.5468 10.9235 6.56064 10.965Z" fill="#F5F5F5"/>
<path d="M6.56064 12.6413L6.66749 12.9617L7.0053 12.9643C7.04905 12.9647 7.06715 13.0205 7.03199 13.0465L6.76024 13.2472L6.86218 13.5692C6.87542 13.6109 6.82789 13.6454 6.79229 13.62L6.51743 13.4235L6.24263 13.62C6.20703 13.6454 6.15961 13.6109 6.17274 13.5692L6.27468 13.2472L6.00293 13.0465C5.96777 13.0204 5.98587 12.9647 6.02962 12.9643L6.36742 12.9617L6.47428 12.6413C6.48812 12.5997 6.5468 12.5997 6.56064 12.6413Z" fill="#F5F5F5"/>
<path d="M7.86185 6.75765L7.96871 7.07812L8.30651 7.08069C8.35026 7.08107 8.36837 7.13685 8.3332 7.16283L8.06146 7.36353L8.1634 7.68559C8.17663 7.72726 8.12911 7.76182 8.09351 7.73634L7.8187 7.5399L7.5439 7.73634C7.5083 7.76177 7.46088 7.72726 7.47401 7.68559L7.57594 7.36353L7.3042 7.16283C7.26904 7.1368 7.28714 7.08107 7.33089 7.08069L7.6687 7.07812L7.77555 6.75765C7.78939 6.7162 7.84802 6.7162 7.86185 6.75765Z" fill="#F5F5F5"/>
<path d="M7.86185 8.43396L7.96871 8.75443L8.30651 8.757C8.35026 8.75738 8.36837 8.81316 8.3332 8.83914L8.06146 9.03984L8.1634 9.3619C8.17663 9.40357 8.12911 9.43813 8.09351 9.41265L7.8187 9.21621L7.5439 9.41265C7.5083 9.43808 7.46088 9.40362 7.47401 9.3619L7.57594 9.03984L7.3042 8.83914C7.26904 8.81311 7.28714 8.75738 7.33089 8.757L7.6687 8.75443L7.77555 8.43396C7.78939 8.39246 7.84802 8.39246 7.86185 8.43396Z" fill="#F5F5F5"/>
<path d="M7.86185 10.1105L7.96871 10.4309L8.30651 10.4335C8.35026 10.4339 8.36837 10.4897 8.3332 10.5157L8.06146 10.7164L8.1634 11.0384C8.17663 11.0801 8.12911 11.1146 8.09351 11.0892L7.8187 10.8927L7.5439 11.0892C7.5083 11.1146 7.46088 11.0801 7.47401 11.0384L7.57594 10.7164L7.3042 10.5157C7.26904 10.4896 7.28714 10.4339 7.33089 10.4335L7.6687 10.4309L7.77555 10.1105C7.78939 10.069 7.84802 10.069 7.86185 10.1105Z" fill="#F5F5F5"/>
<path d="M7.86185 11.7867L7.96871 12.1072L8.30651 12.1097C8.35026 12.1101 8.36837 12.1659 8.3332 12.1919L8.06146 12.3926L8.1634 12.7146C8.17663 12.7563 8.12911 12.7909 8.09351 12.7654L7.8187 12.569L7.5439 12.7654C7.5083 12.7908 7.46088 12.7563 7.47401 12.7146L7.57594 12.3926L7.3042 12.1919C7.26904 12.1659 7.28714 12.1101 7.33089 12.1097L7.6687 12.1072L7.77555 11.7867C7.78939 11.7453 7.84802 11.7453 7.86185 11.7867Z" fill="#F5F5F5"/>
<path d="M9.16312 5.93567L9.26998 6.25614L9.60778 6.25871C9.65153 6.25909 9.66964 6.31487 9.63447 6.34085L9.36273 6.54155L9.46467 6.86361C9.4779 6.90528 9.43038 6.93984 9.39478 6.91436L9.11997 6.71792L8.84517 6.91436C8.80957 6.93979 8.76215 6.90528 8.77528 6.86361L8.87721 6.54155L8.60547 6.34085C8.57031 6.31482 8.58841 6.25909 8.63216 6.25871L8.96996 6.25614L9.07682 5.93567C9.09055 5.89416 9.14928 5.89416 9.16312 5.93567Z" fill="#F5F5F5"/>
<path d="M9.16312 7.61214L9.26998 7.93261L9.60778 7.93518C9.65153 7.93557 9.66964 7.99135 9.63447 8.01732L9.36273 8.21803L9.46467 8.54008C9.4779 8.58175 9.43038 8.61631 9.39478 8.59083L9.11997 8.39439L8.84517 8.59083C8.80957 8.61626 8.76215 8.58175 8.77528 8.54008L8.87721 8.21803L8.60547 8.01732C8.57031 7.99129 8.58841 7.93557 8.63216 7.93518L8.96996 7.93261L9.07682 7.61214C9.09055 7.57069 9.14928 7.57069 9.16312 7.61214Z" fill="#F5F5F5"/>
<path d="M9.16312 9.28841L9.26998 9.60888L9.60778 9.61145C9.65153 9.61184 9.66964 9.66762 9.63447 9.69359L9.36273 9.8943L9.46467 10.2164C9.4779 10.258 9.43038 10.2926 9.39478 10.2671L9.11997 10.0707L8.84517 10.2671C8.80957 10.2925 8.76215 10.258 8.77528 10.2164L8.87721 9.8943L8.60547 9.69359C8.57031 9.66756 8.58841 9.61184 8.63216 9.61145L8.96996 9.60888L9.07682 9.28841C9.09055 9.24696 9.14928 9.24696 9.16312 9.28841Z" fill="#F5F5F5"/>
<path d="M9.16312 10.965L9.26998 11.2854L9.60778 11.288C9.65153 11.2884 9.66964 11.3442 9.63447 11.3701L9.36273 11.5708L9.46467 11.8929C9.4779 11.9346 9.43038 11.9691 9.39478 11.9437L9.11997 11.7472L8.84517 11.9437C8.80957 11.9691 8.76215 11.9346 8.77528 11.8929L8.87721 11.5708L8.60547 11.3701C8.57031 11.3441 8.58841 11.2884 8.63216 11.288L8.96996 11.2854L9.07682 10.965C9.09055 10.9235 9.14928 10.9235 9.16312 10.965Z" fill="#F5F5F5"/>
<path d="M9.16312 12.6413L9.26998 12.9617L9.60778 12.9643C9.65153 12.9647 9.66964 13.0205 9.63447 13.0465L9.36273 13.2472L9.46467 13.5692C9.4779 13.6109 9.43038 13.6454 9.39478 13.62L9.11997 13.4235L8.84517 13.62C8.80957 13.6454 8.76215 13.6109 8.77528 13.5692L8.87721 13.2472L8.60547 13.0465C8.57031 13.0204 8.58841 12.9647 8.63216 12.9643L8.96996 12.9617L9.07682 12.6413C9.09055 12.5997 9.14928 12.5997 9.16312 12.6413Z" fill="#F5F5F5"/>
<path d="M10.4643 6.75765L10.5711 7.07812L10.9089 7.08069C10.9527 7.08107 10.9708 7.13685 10.9356 7.16283L10.6639 7.36353L10.7658 7.68559C10.779 7.72726 10.7315 7.76182 10.6959 7.73634L10.4211 7.5399L10.1463 7.73634C10.1107 7.76177 10.0633 7.72726 10.0764 7.68559L10.1784 7.36353L9.90662 7.16283C9.87146 7.1368 9.88956 7.08107 9.93331 7.08069L10.2711 7.07812L10.378 6.75765C10.3918 6.7162 10.4505 6.7162 10.4643 6.75765Z" fill="#F5F5F5"/>
<path d="M10.4643 8.43396L10.5711 8.75443L10.9089 8.757C10.9527 8.75738 10.9708 8.81316 10.9356 8.83914L10.6639 9.03984L10.7658 9.3619C10.779 9.40357 10.7315 9.43813 10.6959 9.41265L10.4211 9.21621L10.1463 9.41265C10.1107 9.43808 10.0633 9.40362 10.0764 9.3619L10.1784 9.03984L9.90662 8.83914C9.87146 8.81311 9.88956 8.75738 9.93331 8.757L10.2711 8.75443L10.378 8.43396C10.3918 8.39246 10.4505 8.39246 10.4643 8.43396Z" fill="#F5F5F5"/>
<path d="M10.4643 10.1105L10.5711 10.4309L10.9089 10.4335C10.9527 10.4339 10.9708 10.4897 10.9356 10.5157L10.6639 10.7164L10.7658 11.0384C10.779 11.0801 10.7315 11.1146 10.6959 11.0892L10.4211 10.8927L10.1463 11.0892C10.1107 11.1146 10.0633 11.0801 10.0764 11.0384L10.1784 10.7164L9.90662 10.5157C9.87146 10.4896 9.88956 10.4339 9.93331 10.4335L10.2711 10.4309L10.378 10.1105C10.3918 10.069 10.4505 10.069 10.4643 10.1105Z" fill="#F5F5F5"/>
<path d="M10.4643 11.7867L10.5711 12.1072L10.9089 12.1097C10.9527 12.1101 10.9708 12.1659 10.9356 12.1919L10.6639 12.3926L10.7658 12.7146C10.779 12.7563 10.7315 12.7909 10.6959 12.7654L10.4211 12.569L10.1463 12.7654C10.1107 12.7908 10.0633 12.7563 10.0764 12.7146L10.1784 12.3926L9.90662 12.1919C9.87146 12.1659 9.88956 12.1101 9.93331 12.1097L10.2711 12.1072L10.378 11.7867C10.3918 11.7453 10.4505 11.7453 10.4643 11.7867Z" fill="#F5F5F5"/>
<path d="M11.7654 5.93567L11.8723 6.25614L12.2101 6.25871C12.2538 6.25909 12.2719 6.31487 12.2368 6.34085L11.965 6.54155L12.067 6.86361C12.0802 6.90528 12.0327 6.93984 11.9971 6.91436L11.7223 6.71792L11.4475 6.91436C11.4119 6.93979 11.3644 6.90528 11.3776 6.86361L11.4795 6.54155L11.2078 6.34085C11.1726 6.31482 11.1907 6.25909 11.2345 6.25871L11.5723 6.25614L11.6791 5.93567C11.6929 5.89416 11.7515 5.89416 11.7654 5.93567Z" fill="#F5F5F5"/>
<path d="M11.7654 7.61214L11.8723 7.93261L12.2101 7.93518C12.2538 7.93557 12.2719 7.99135 12.2368 8.01732L11.965 8.21803L12.067 8.54008C12.0802 8.58175 12.0327 8.61631 11.9971 8.59083L11.7223 8.39439L11.4475 8.59083C11.4119 8.61626 11.3644 8.58175 11.3776 8.54008L11.4795 8.21803L11.2078 8.01732C11.1726 7.99129 11.1907 7.93557 11.2345 7.93518L11.5723 7.93261L11.6791 7.61214C11.6929 7.57069 11.7515 7.57069 11.7654 7.61214Z" fill="#F5F5F5"/>
<path d="M11.7654 9.28841L11.8723 9.60888L12.2101 9.61145C12.2538 9.61184 12.2719 9.66762 12.2368 9.69359L11.965 9.8943L12.067 10.2164C12.0802 10.258 12.0327 10.2926 11.9971 10.2671L11.7223 10.0707L11.4475 10.2671C11.4119 10.2925 11.3644 10.258 11.3776 10.2164L11.4795 9.8943L11.2078 9.69359C11.1726 9.66756 11.1907 9.61184 11.2345 9.61145L11.5723 9.60888L11.6791 9.28841C11.6929 9.24696 11.7515 9.24696 11.7654 9.28841Z" fill="#F5F5F5"/>
<path d="M11.7654 10.965L11.8723 11.2854L12.2101 11.288C12.2538 11.2884 12.2719 11.3442 12.2368 11.3701L11.965 11.5708L12.067 11.8929C12.0802 11.9346 12.0327 11.9691 11.9971 11.9437L11.7223 11.7472L11.4475 11.9437C11.4119 11.9691 11.3644 11.9346 11.3776 11.8929L11.4795 11.5708L11.2078 11.3701C11.1726 11.3441 11.1907 11.2884 11.2345 11.288L11.5723 11.2854L11.6791 10.965C11.6929 10.9235 11.7515 10.9235 11.7654 10.965Z" fill="#F5F5F5"/>
<path d="M11.7654 12.6413L11.8723 12.9617L12.2101 12.9643C12.2538 12.9647 12.2719 13.0205 12.2368 13.0465L11.965 13.2472L12.067 13.5692C12.0802 13.6109 12.0327 13.6454 11.9971 13.62L11.7223 13.4235L11.4475 13.62C11.4119 13.6454 11.3644 13.6109 11.3776 13.5692L11.4795 13.2472L11.2078 13.0465C11.1726 13.0204 11.1907 12.9647 11.2345 12.9643L11.5723 12.9617L11.6791 12.6413C11.6929 12.5997 11.7515 12.5997 11.7654 12.6413Z" fill="#F5F5F5"/>
</g>
<defs>
<clipPath id="clip0_315_122">
<rect width="28" height="28" fill="white"/>
</clipPath>
</defs>
</svg>
