<svg width="111" height="36" viewBox="0 0 111 36" fill="none" xmlns="http://www.w3.org/2000/svg">
<path d="M40.1004 28C39.8804 28 39.7004 27.93 39.5604 27.79C39.4204 27.65 39.3504 27.47 39.3504 27.25V7.75C39.3504 7.53 39.4204 7.35 39.5604 7.21C39.7004 7.07 39.8804 7 40.1004 7H43.4304C43.6504 7 43.8304 7.07 43.9704 7.21C44.1104 7.35 44.1804 7.53 44.1804 7.75V23.98H53.4804C53.7004 23.98 53.8804 24.05 54.0204 24.19C54.1604 24.33 54.2304 24.51 54.2304 24.73V27.25C54.2304 27.47 54.1604 27.65 54.0204 27.79C53.8804 27.93 53.7004 28 53.4804 28H40.1004ZM63.6213 28.3C61.9613 28.3 60.5713 28.03 59.4513 27.49C58.3313 26.93 57.4713 26.14 56.8713 25.12C56.2913 24.1 55.9713 22.91 55.9113 21.55C55.8913 21.15 55.8813 20.7 55.8813 20.2C55.8813 19.68 55.8913 19.23 55.9113 18.85C55.9713 17.47 56.3113 16.28 56.9313 15.28C57.5513 14.26 58.4213 13.48 59.5413 12.94C60.6613 12.38 62.0213 12.1 63.6213 12.1C65.2013 12.1 66.5513 12.38 67.6713 12.94C68.7913 13.48 69.6613 14.26 70.2813 15.28C70.9013 16.28 71.2413 17.47 71.3013 18.85C71.3413 19.23 71.3613 19.68 71.3613 20.2C71.3613 20.7 71.3413 21.15 71.3013 21.55C71.2413 22.91 70.9113 24.1 70.3113 25.12C69.7313 26.14 68.8813 26.93 67.7613 27.49C66.6413 28.03 65.2613 28.3 63.6213 28.3ZM63.6213 25C64.6013 25 65.3413 24.7 65.8413 24.1C66.3413 23.48 66.6113 22.58 66.6513 21.4C66.6713 21.1 66.6813 20.7 66.6813 20.2C66.6813 19.7 66.6713 19.3 66.6513 19C66.6113 17.84 66.3413 16.95 65.8413 16.33C65.3413 15.71 64.6013 15.4 63.6213 15.4C62.6413 15.4 61.8913 15.71 61.3713 16.33C60.8713 16.95 60.6013 17.84 60.5613 19C60.5413 19.3 60.5313 19.7 60.5313 20.2C60.5313 20.7 60.5413 21.1 60.5613 21.4C60.6013 22.58 60.8713 23.48 61.3713 24.1C61.8913 24.7 62.6413 25 63.6213 25ZM81.8189 34.6C80.3389 34.6 79.1089 34.4 78.1289 34C77.1489 33.62 76.3689 33.15 75.7889 32.59C75.2289 32.05 74.8289 31.51 74.5889 30.97C74.3489 30.43 74.2189 30.01 74.1989 29.71C74.1789 29.49 74.2489 29.31 74.4089 29.17C74.5689 29.03 74.7489 28.96 74.9489 28.96H78.1589C78.3389 28.96 78.4889 29 78.6089 29.08C78.7489 29.18 78.8589 29.34 78.9389 29.56C79.0389 29.8 79.1789 30.05 79.3589 30.31C79.5389 30.59 79.8089 30.82 80.1689 31C80.5489 31.18 81.0489 31.27 81.6689 31.27C82.3689 31.27 82.9489 31.17 83.4089 30.97C83.8689 30.77 84.2089 30.43 84.4289 29.95C84.6689 29.47 84.7889 28.82 84.7889 28V25.99C84.3089 26.51 83.6989 26.94 82.9589 27.28C82.2389 27.62 81.3489 27.79 80.2889 27.79C79.2489 27.79 78.3289 27.63 77.5289 27.31C76.7489 26.97 76.0989 26.5 75.5789 25.9C75.0589 25.28 74.6589 24.54 74.3789 23.68C74.0989 22.82 73.9389 21.85 73.8989 20.77C73.8789 20.23 73.8789 19.7 73.8989 19.18C73.9389 18.14 74.0989 17.19 74.3789 16.33C74.6589 15.47 75.0589 14.73 75.5789 14.11C76.0989 13.47 76.7489 12.98 77.5289 12.64C78.3289 12.28 79.2489 12.1 80.2889 12.1C81.3889 12.1 82.3289 12.31 83.1089 12.73C83.8889 13.15 84.5289 13.67 85.0289 14.29V13.15C85.0289 12.95 85.0989 12.78 85.2389 12.64C85.3789 12.48 85.5489 12.4 85.7489 12.4H88.6889C88.8889 12.4 89.0589 12.48 89.1989 12.64C89.3589 12.78 89.4389 12.95 89.4389 13.15L89.4689 27.58C89.4689 29.08 89.1789 30.35 88.5989 31.39C88.0189 32.43 87.1589 33.22 86.0189 33.76C84.8989 34.32 83.4989 34.6 81.8189 34.6ZM81.6689 24.28C82.3889 24.28 82.9689 24.12 83.4089 23.8C83.8689 23.46 84.2089 23.04 84.4289 22.54C84.6489 22.02 84.7689 21.48 84.7889 20.92C84.8089 20.7 84.8189 20.39 84.8189 19.99C84.8189 19.57 84.8089 19.25 84.7889 19.03C84.7689 18.47 84.6489 17.94 84.4289 17.44C84.2089 16.92 83.8689 16.5 83.4089 16.18C82.9689 15.86 82.3889 15.7 81.6689 15.7C80.9089 15.7 80.3089 15.87 79.8689 16.21C79.4289 16.53 79.1089 16.96 78.9089 17.5C78.7089 18.04 78.5889 18.63 78.5489 19.27C78.5289 19.75 78.5289 20.22 78.5489 20.68C78.5889 21.34 78.7089 21.94 78.9089 22.48C79.1089 23.02 79.4289 23.46 79.8689 23.8C80.3089 24.12 80.9089 24.28 81.6689 24.28ZM100.389 28.3C98.7289 28.3 97.3389 28.03 96.2189 27.49C95.0989 26.93 94.2389 26.14 93.6389 25.12C93.0589 24.1 92.7389 22.91 92.6789 21.55C92.6589 21.15 92.6489 20.7 92.6489 20.2C92.6489 19.68 92.6589 19.23 92.6789 18.85C92.7389 17.47 93.0789 16.28 93.6989 15.28C94.3189 14.26 95.1889 13.48 96.3089 12.94C97.4289 12.38 98.7889 12.1 100.389 12.1C101.969 12.1 103.319 12.38 104.439 12.94C105.559 13.48 106.429 14.26 107.049 15.28C107.669 16.28 108.009 17.47 108.069 18.85C108.109 19.23 108.129 19.68 108.129 20.2C108.129 20.7 108.109 21.15 108.069 21.55C108.009 22.91 107.679 24.1 107.079 25.12C106.499 26.14 105.649 26.93 104.529 27.49C103.409 28.03 102.029 28.3 100.389 28.3ZM100.389 25C101.369 25 102.109 24.7 102.609 24.1C103.109 23.48 103.379 22.58 103.419 21.4C103.439 21.1 103.449 20.7 103.449 20.2C103.449 19.7 103.439 19.3 103.419 19C103.379 17.84 103.109 16.95 102.609 16.33C102.109 15.71 101.369 15.4 100.389 15.4C99.4089 15.4 98.6589 15.71 98.1389 16.33C97.6389 16.95 97.3689 17.84 97.3289 19C97.3089 19.3 97.2989 19.7 97.2989 20.2C97.2989 20.7 97.3089 21.1 97.3289 21.4C97.3689 22.58 97.6389 23.48 98.1389 24.1C98.6589 24.7 99.4089 25 100.389 25Z" fill="white"/>
<rect y="7.8916" width="9.78261" height="9.78261" transform="rotate(-30 0 7.8916)" fill="#FFB82B"/>
<rect x="4.13037" y="18.0002" width="10" height="10" fill="#FFB82B"/>
<rect x="18.1304" y="5.00024" width="10" height="10" fill="#FFB82B"/>
<rect x="18.1304" y="18.0002" width="10" height="10" fill="#FFB82B"/>
</svg>
