<svg width="24" height="24" viewBox="0 0 24 24" fill="none" xmlns="http://www.w3.org/2000/svg">
<g clip-path="url(#clip0_47_524)">
<path d="M15.4943 14H14.7043L14.4243 13.73C15.4043 12.59 15.9943 11.11 15.9943 9.5C15.9943 5.91 13.0843 3 9.49426 3C5.90426 3 2.99426 5.91 2.99426 9.5C2.99426 13.09 5.90426 16 9.49426 16C11.1043 16 12.5843 15.41 13.7243 14.43L13.9943 14.71V15.5L18.9943 20.49L20.4843 19L15.4943 14ZM9.49426 14C7.00426 14 4.99426 11.99 4.99426 9.5C4.99426 7.01 7.00426 5 9.49426 5C11.9843 5 13.9943 7.01 13.9943 9.5C13.9943 11.99 11.9843 14 9.49426 14Z" fill="white"/>
</g>
<defs>
<clipPath id="clip0_47_524">
<rect width="24" height="24" fill="white" transform="translate(-0.0057373)"/>
</clipPath>
</defs>
</svg>
