<svg width="28" height="28" viewBox="0 0 28 28" fill="none" xmlns="http://www.w3.org/2000/svg">
<g clip-path="url(#clip0_315_71)">
<path d="M27.5172 23.1722H0.48278C0.216179 23.1722 0 22.956 0 22.6894V5.31017C0 5.04357 0.216179 4.82739 0.48278 4.82739H27.5172C27.7838 4.82739 28 5.04357 28 5.31017V22.6894C27.9999 22.9561 27.7838 23.1722 27.5172 23.1722Z" fill="#73AF00"/>
<path d="M8.68986 4.82764H3.86206V23.1725H8.68986V4.82764Z" fill="#FF4B55"/>
<path d="M8.20705 6.91924L7.24154 7.72385H5.31048L4.34497 6.91924V6.11462L5.31048 5.31006H7.24154L8.20705 6.11462V6.91924Z" fill="#F5F5F5"/>
<path d="M8.20766 13.678L7.24215 14.4827H5.31109L4.34558 13.678V12.8735L5.31109 12.0688H7.24215L8.20766 12.8735V13.678Z" fill="#73AF00"/>
<path d="M8.20742 10.2986L7.24191 11.1032H5.31084L4.34534 10.2986V9.49407L5.31084 8.68945H7.24191L8.20742 9.49407V10.2986Z" fill="#73AF00"/>
<path d="M8.20766 17.0572L7.24215 17.8618H5.31109L4.34558 17.0572V16.2527L5.31109 15.448H7.24215L8.20766 16.2527V17.0572Z" fill="#73AF00"/>
<path d="M3.86292 7.24121L4.82842 8.20672L3.86292 9.17222V7.24121Z" fill="#FFB400"/>
<path d="M8.69036 9.17222L7.72485 8.20672L8.69036 7.24121V9.17222Z" fill="#FFB400"/>
<path d="M3.86292 10.6206L4.82842 11.5861L3.86292 12.5516V10.6206Z" fill="#FFB400"/>
<path d="M8.69036 12.5516L7.72485 11.5861L8.69036 10.6206V12.5516Z" fill="#FFB400"/>
<path d="M3.86292 13.9998L4.82842 14.9653L3.86292 15.9308V13.9998Z" fill="#FFB400"/>
<path d="M8.69036 15.9308L7.72485 14.9653L8.69036 13.9998V15.9308Z" fill="#FFB400"/>
<path d="M3.86292 17.3792L4.82842 18.3447L3.86292 19.3102V17.3792Z" fill="#FFB400"/>
<path d="M8.69036 19.3102L7.72485 18.3447L8.69036 17.3792V19.3102Z" fill="#FFB400"/>
<path d="M3.86292 4.82739H4.82842L3.86292 5.7929V4.82739Z" fill="#FFB400"/>
<path d="M8.69036 5.7929L7.72485 4.82739H8.69036V5.7929Z" fill="#FFB400"/>
<path d="M6.51769 8.6897H6.03491V11.1036H6.51769V8.6897Z" fill="#FFB400"/>
<path d="M7.24107 9.65479H5.31006V10.1376H7.24107V9.65479Z" fill="#FF4B55"/>
<path d="M7.72479 9.09173L7.24207 8.68945V11.1032L7.72479 10.7009V9.09173Z" fill="#FFB400"/>
<path d="M4.82849 10.7009L5.31122 11.1032V8.68945L4.82849 9.09168V10.7009Z" fill="#FFB400"/>
<path d="M6.27659 5.31006H5.31114L4.34558 6.11462V6.51695H6.27659V5.31006Z" fill="#FFB400"/>
<path d="M6.27661 7.72374H7.24217L8.20768 6.91913V6.51685H6.27661V7.72374Z" fill="#FFB400"/>
<path d="M6.27581 7.24125L5.3103 6.51998L6.27581 5.79297L7.24137 6.51998L6.27581 7.24125Z" fill="#FF4B55"/>
<path d="M6.27551 7.24121L7.24107 6.51993L7.2373 6.51709H6.27551V7.24121Z" fill="#73AF00"/>
<path d="M6.27601 6.51714V5.79297L5.31433 6.51714H6.27601Z" fill="#73AF00"/>
<path d="M7.24107 12.5518H5.31006V14H7.24107V12.5518Z" fill="#FF4B55"/>
<path d="M7.72387 13.0339H7.24109V13.5167H7.72387V13.0339Z" fill="#FFB400"/>
<path d="M6.51708 13.0339H6.0343V13.5167H6.51708V13.0339Z" fill="#F5F5F5"/>
<path d="M6.51708 15.9307H6.0343V16.4134H6.51708V15.9307Z" fill="#FF4B55"/>
<path d="M7.24108 16.4138H6.7583V16.8966H7.24108V16.4138Z" fill="#FFB400"/>
<path d="M5.79284 16.4138H5.31006V16.8966H5.79284V16.4138Z" fill="#FFB400"/>
<path d="M6.51708 16.896H6.0343V17.3788H6.51708V16.896Z" fill="#FF4B55"/>
<path d="M5.31054 13.0339H4.82776V13.5167H5.31054V13.0339Z" fill="#FFB400"/>
<path d="M8.20705 20.4366L7.24154 21.2412H5.31048L4.34497 20.4366V19.6321L5.31048 18.8274H7.24154L8.20705 19.6321V20.4366Z" fill="#F5F5F5"/>
<path d="M6.27659 18.8274H5.31114L4.34558 19.632V20.0343H6.27659V18.8274Z" fill="#FFB400"/>
<path d="M6.27661 21.2411H7.24217L8.20768 20.4365V20.0342H6.27661V21.2411Z" fill="#FFB400"/>
<path d="M7.24137 20.2756L6.27581 20.7583L5.3103 20.2756V19.7928L6.27581 19.3101L7.24137 19.7928V20.2756Z" fill="#FF4B55"/>
<path d="M15.3127 7.45599C15.2613 7.43073 15.2148 7.49761 15.2565 7.53693C15.8028 8.05247 16.1481 8.77648 16.1481 9.58404C16.1481 11.1704 14.873 12.443 13.3051 12.443C13.0157 12.443 12.7369 12.3979 12.474 12.3157C12.4195 12.2987 12.3842 12.3718 12.4312 12.4044C12.8896 12.723 13.4421 12.9135 14.0452 12.9135C15.6338 12.9135 16.932 11.6407 16.932 10.0313C16.9319 8.90029 16.2681 7.9257 15.3127 7.45599Z" fill="#F5F5F5"/>
<path d="M11.384 9.31864L11.2659 9.65272L11.5437 9.87262C11.5797 9.90111 11.5588 9.95897 11.5129 9.95777L11.1587 9.94864L11.0354 10.2808C11.0195 10.3238 10.9579 10.3218 10.9449 10.2778L10.8441 9.93814L10.4901 9.92353C10.4442 9.92168 10.4272 9.8625 10.465 9.83653L10.7569 9.63572L10.6614 9.29447C10.649 9.25028 10.7 9.21577 10.7364 9.24372L11.0176 9.45929L11.3126 9.26297C11.3507 9.23754 11.3993 9.27538 11.384 9.31864Z" fill="#F5F5F5"/>
<path d="M12.8186 10.0432L12.7005 10.3773L12.9783 10.5972C13.0143 10.6257 12.9933 10.6836 12.9475 10.6824L12.5933 10.6732L12.47 11.0054C12.454 11.0485 12.3925 11.0464 12.3795 11.0024L12.2787 10.6627L11.9246 10.6481C11.8788 10.6463 11.8618 10.5871 11.8995 10.5611L12.1915 10.3603L12.0959 10.0191C12.0836 9.97489 12.1345 9.94038 12.171 9.96833L12.4522 10.1839L12.7472 9.98758C12.7853 9.9622 12.8338 10 12.8186 10.0432Z" fill="#F5F5F5"/>
<path d="M12.8042 8.55057L12.6861 8.88466L12.9639 9.10455C12.9999 9.13305 12.9789 9.19091 12.9331 9.1897L12.5789 9.18057L12.4556 9.51274C12.4396 9.55578 12.3781 9.5537 12.3651 9.50973L12.2643 9.17007L11.9102 9.15547C11.8644 9.15361 11.8474 9.09444 11.8851 9.06846L12.1771 8.86765L12.0815 8.5264C12.0692 8.48221 12.1201 8.4477 12.1566 8.47565L12.4378 8.69123L12.7328 8.4949C12.7709 8.46953 12.8195 8.50737 12.8042 8.55057Z" fill="#F5F5F5"/>
<path d="M12.853 7.1099L12.7349 7.44398L13.0127 7.66388C13.0487 7.69237 13.0278 7.75023 12.9819 7.74903L12.6277 7.7399L12.5044 8.07207C12.4884 8.11511 12.4269 8.11303 12.4139 8.06906L12.3131 7.7294L11.9591 7.71479C11.9132 7.71294 11.8962 7.65376 11.934 7.62779L12.2259 7.42697L12.1304 7.08573C12.118 7.04154 12.169 7.00703 12.2054 7.03498L12.4866 7.25055L12.7816 7.05423C12.8197 7.0288 12.8683 7.06664 12.853 7.1099Z" fill="#F5F5F5"/>
<path d="M14.2588 7.83451L14.1407 8.16859L14.4185 8.38849C14.4545 8.41698 14.4335 8.47484 14.3877 8.47364L14.0334 8.46451L13.9102 8.79668C13.8942 8.83972 13.8327 8.83764 13.8197 8.79367L13.7189 8.45401L13.3648 8.43941C13.319 8.43755 13.3019 8.37837 13.3397 8.3524L13.6317 8.15159L13.5361 7.81034C13.5238 7.76615 13.5747 7.73164 13.6111 7.75959L13.8923 7.97516L14.1874 7.77884C14.2255 7.75341 14.274 7.79125 14.2588 7.83451Z" fill="#F5F5F5"/>
</g>
<defs>
<clipPath id="clip0_315_71">
<rect width="28" height="28" fill="white"/>
</clipPath>
</defs>
</svg>
