<svg width="424" height="142" viewBox="0 0 224 42" fill="none" xmlns="http://www.w3.org/2000/svg">
<g clip-path="url(#clip0_327_2)">
<rect width="44.8" height="39.3824" fill="#00295A"/>
<path d="M17.4477 15.3032C20.2637 15.9597 22.2407 16.7549 23.3788 17.6887C25.0129 19.0165 25.83 20.7381 25.83 22.8538C25.83 25.0861 24.9327 26.9318 23.138 28.3909C20.9349 30.1563 17.7323 31.0391 13.5302 31.0391H-1.54914V30.2293C-0.177634 30.2293 0.748865 30.1053 1.23035 29.8572C1.72643 29.5946 2.06931 29.259 2.25899 28.8505C2.46325 28.4419 2.56539 27.4352 2.56539 25.8302V6.57073C2.56539 4.96577 2.46325 3.95902 2.25899 3.55049C2.06931 3.12736 1.72643 2.79178 1.23035 2.54374C0.734275 2.2957 -0.192224 2.17168 -1.54914 2.17168V1.36191H12.6766C16.0762 1.36191 18.4837 1.66831 19.8989 2.28111C21.3142 2.87932 22.4304 3.78394 23.2475 4.99495C24.0645 6.19137 24.4731 7.46805 24.4731 8.82497C24.4731 10.2548 23.9551 11.5315 22.9192 12.655C21.8833 13.7639 20.0594 14.6466 17.4477 15.3032ZM9.4813 14.7122C11.5532 14.7122 13.0779 14.4788 14.0554 14.0119C15.0476 13.545 15.8063 12.8884 16.3316 12.0422C16.8568 11.1959 17.1195 10.1162 17.1195 8.80308C17.1195 7.48993 16.8568 6.41753 16.3316 5.58587C15.8209 4.73962 15.0841 4.09763 14.1211 3.65992C13.1581 3.2222 11.6115 3.01064 9.4813 3.02523V14.7122ZM9.4813 16.4193V25.9397L9.45942 27.034C9.45942 27.8218 9.65639 28.4201 10.0503 28.8286C10.4589 29.2225 11.0571 29.4195 11.845 29.4195C13.0122 29.4195 14.0846 29.1642 15.0622 28.6535C16.0543 28.1282 16.813 27.3768 17.3383 26.3993C17.8636 25.4071 18.1262 24.3055 18.1262 23.0945C18.1262 21.7084 17.8052 20.4682 17.1632 19.3739C16.5212 18.265 15.6385 17.4917 14.515 17.054C13.3916 16.6163 11.7137 16.4048 9.4813 16.4193Z" fill="white"/>
<path d="M45.9555 10.6444L46.1963 20.5368H45.2989C44.8758 18.0564 43.8326 16.0648 42.1693 14.5619C40.5205 13.0445 38.7332 12.2858 36.8072 12.2858C35.319 12.2858 34.1372 12.6871 33.2617 13.4895C32.4009 14.2774 31.9705 15.1893 31.9705 16.2253C31.9705 16.8818 32.1237 17.4655 32.4301 17.9761C32.8532 18.6619 33.5317 19.3403 34.4655 20.0115C35.1512 20.493 36.7343 21.3465 39.2147 22.5721C42.6872 24.2792 45.029 25.8915 46.24 27.4089C47.4365 28.9263 48.0347 30.6626 48.0347 32.6177C48.0347 35.0981 47.0644 37.2356 45.1239 39.0303C43.1979 40.8103 40.7467 41.7003 37.7702 41.7003C36.8364 41.7003 35.9537 41.6055 35.122 41.4158C34.2904 41.2262 33.2472 40.8687 31.9924 40.3434C31.292 40.0516 30.7157 39.9057 30.2634 39.9057C29.884 39.9057 29.4828 40.0516 29.0597 40.3434C28.6365 40.6352 28.2937 41.0802 28.031 41.6785H27.2213V30.4729H28.031C28.673 33.6245 29.9059 36.0319 31.7297 37.6952C33.5681 39.344 35.5452 40.1683 37.6608 40.1683C39.2949 40.1683 40.5935 39.7233 41.5565 38.8333C42.534 37.9433 43.0228 36.9074 43.0228 35.7255C43.0228 35.0252 42.8331 34.3467 42.4538 33.6901C42.089 33.0336 41.5273 32.4135 40.7686 31.8298C40.0099 31.2316 38.6675 30.4583 36.7416 29.51C34.0423 28.1822 32.1018 27.0514 30.92 26.1177C29.7381 25.1839 28.8262 24.1406 28.1842 22.988C27.5568 21.8353 27.2431 20.566 27.2431 19.1798C27.2431 16.8162 28.1113 14.8027 29.8476 13.1394C31.5838 11.476 33.7724 10.6444 36.4133 10.6444C37.3763 10.6444 38.3101 10.7611 39.2147 10.9946C39.9004 11.1696 40.7321 11.4979 41.7097 11.9794C42.7018 12.4463 43.3949 12.6798 43.7888 12.6798C44.1682 12.6798 44.4673 12.563 44.6861 12.3296C44.905 12.0961 45.1093 11.5344 45.2989 10.6444H45.9555Z" fill="white"/>
</g>
<path d="M63.0734 12.3414C64.1686 12.5968 64.9374 12.906 65.38 13.2691C66.0155 13.7855 66.3332 14.455 66.3332 15.2778C66.3332 16.1459 65.9843 16.8637 65.2863 17.4311C64.4296 18.1177 63.1841 18.4609 61.55 18.4609H55.6858V18.146C56.2191 18.146 56.5794 18.0978 56.7667 18.0013C56.9596 17.8992 57.0929 17.7687 57.1667 17.6098C57.2462 17.4509 57.2859 17.0594 57.2859 16.4353V8.94547C57.2859 8.32132 57.2462 7.92981 57.1667 7.77094C57.0929 7.60639 56.9596 7.47588 56.7667 7.37942C56.5738 7.28296 56.2135 7.23473 55.6858 7.23473V6.91982H61.218C62.5401 6.91982 63.4763 7.03898 64.0267 7.27729C64.5771 7.50993 65.0112 7.86172 65.3289 8.33267C65.6467 8.79795 65.8055 9.29443 65.8055 9.82212C65.8055 10.3782 65.6041 10.8747 65.2012 11.3116C64.7984 11.7428 64.0891 12.0861 63.0734 12.3414ZM59.9754 12.1116C60.7811 12.1116 61.3741 12.0208 61.7542 11.8393C62.1401 11.6577 62.4351 11.4024 62.6394 11.0733C62.8436 10.7442 62.9458 10.3243 62.9458 9.81361C62.9458 9.30294 62.8436 8.8859 62.6394 8.56247C62.4408 8.23337 62.1542 7.98371 61.7798 7.81349C61.4053 7.64327 60.8038 7.56099 59.9754 7.56667V12.1116ZM59.9754 12.7755V16.4778L59.9669 16.9034C59.9669 17.2098 60.0435 17.4424 60.1967 17.6013C60.3556 17.7545 60.5882 17.8311 60.8946 17.8311C61.3485 17.8311 61.7656 17.7318 62.1457 17.5332C62.5316 17.329 62.8266 17.0367 63.0309 16.6566C63.2352 16.2707 63.3373 15.8423 63.3373 15.3714C63.3373 14.8324 63.2125 14.3501 62.9628 13.9245C62.7131 13.4933 62.3699 13.1925 61.933 13.0223C61.4961 12.8521 60.8435 12.7698 59.9754 12.7755ZM67.3546 6.91982H73.3124V7.23473H73.0145C72.5662 7.23473 72.257 7.28296 72.0868 7.37942C71.9222 7.47021 71.8031 7.59788 71.7293 7.76242C71.6612 7.92697 71.6272 8.33835 71.6272 8.99654V14.6479C71.6272 15.6806 71.7038 16.3644 71.857 16.6991C72.0158 17.0339 72.274 17.3119 72.6315 17.5332C72.9889 17.7545 73.44 17.8652 73.9847 17.8652C74.6089 17.8652 75.1394 17.7261 75.5763 17.4481C76.0189 17.1644 76.348 16.7757 76.5636 16.2821C76.7849 15.7884 76.8956 14.9288 76.8956 13.7032V8.99654C76.8956 8.4802 76.8417 8.11138 76.7338 7.89009C76.626 7.6688 76.4899 7.5156 76.3253 7.43049C76.07 7.29998 75.7097 7.23473 75.2444 7.23473V6.91982H79.2361V7.23473H78.9978C78.6744 7.23473 78.4049 7.29998 78.1892 7.43049C77.9736 7.56099 77.8176 7.75675 77.7211 8.01776C77.6474 8.19933 77.6105 8.52559 77.6105 8.99654V13.3798C77.6105 14.7359 77.5197 15.7147 77.3381 16.3161C77.1622 16.9176 76.7282 17.4708 76.0359 17.9758C75.3437 18.4808 74.399 18.7333 73.2017 18.7333C72.2031 18.7333 71.4314 18.6 70.8867 18.3333C70.1434 17.9701 69.6185 17.5049 69.3121 16.9374C69.0057 16.37 68.8525 15.6069 68.8525 14.6479V8.99654C68.8525 8.33267 68.8156 7.9213 68.7419 7.76242C68.6681 7.59788 68.5404 7.46737 68.3589 7.37091C68.1773 7.27445 67.8425 7.22906 67.3546 7.23473V6.91982ZM87.7302 6.65597L87.8239 10.503H87.4749C87.3104 9.53842 86.9047 8.7639 86.2578 8.17947C85.6166 7.58936 84.9216 7.29431 84.1726 7.29431C83.5938 7.29431 83.1342 7.45035 82.7938 7.76242C82.459 8.06883 82.2916 8.42346 82.2916 8.82632C82.2916 9.08165 82.3512 9.30862 82.4704 9.50721C82.6349 9.77389 82.8988 10.0377 83.2619 10.2987C83.5286 10.486 84.1442 10.8179 85.1088 11.2946C86.4592 11.9584 87.3699 12.5854 87.8409 13.1755C88.3062 13.7656 88.5388 14.4408 88.5388 15.2012C88.5388 16.1658 88.1615 16.997 87.4068 17.6949C86.6578 18.3872 85.7046 18.7333 84.5471 18.7333C84.1839 18.7333 83.8407 18.6964 83.5172 18.6226C83.1938 18.5489 82.7881 18.4099 82.3001 18.2056C82.0278 18.0921 81.8037 18.0354 81.6278 18.0354C81.4802 18.0354 81.3242 18.0921 81.1596 18.2056C80.9951 18.3191 80.8618 18.4921 80.7596 18.7248H80.4447V14.3671H80.7596C81.0093 15.5927 81.4887 16.5289 82.198 17.1758C82.9129 17.8169 83.6818 18.1375 84.5045 18.1375C85.14 18.1375 85.645 17.9645 86.0195 17.6183C86.3997 17.2722 86.5898 16.8694 86.5898 16.4098C86.5898 16.1374 86.516 15.8735 86.3685 15.6182C86.2266 15.3629 86.0082 15.1217 85.7131 14.8948C85.4181 14.6621 84.896 14.3614 84.1471 13.9926C83.0973 13.4762 82.3427 13.0365 81.8831 12.6734C81.4235 12.3102 81.0689 11.9045 80.8192 11.4563C80.5752 11.008 80.4532 10.5144 80.4532 9.97532C80.4532 9.05612 80.7908 8.27309 81.466 7.62625C82.1413 6.9794 82.9924 6.65597 84.0194 6.65597C84.3939 6.65597 84.757 6.70137 85.1088 6.79215C85.3755 6.86024 85.6989 6.98791 86.0791 7.17515C86.4649 7.35673 86.7344 7.44751 86.8876 7.44751C87.0352 7.44751 87.1515 7.40212 87.2366 7.31133C87.3217 7.22055 87.4011 7.00209 87.4749 6.65597H87.7302ZM95.6286 18.146V18.4609H89.5942V18.146H89.9772C90.312 18.146 90.5815 18.0864 90.7857 17.9673C90.9333 17.8879 91.0468 17.7517 91.1262 17.5588C91.1886 17.4226 91.2198 17.0651 91.2198 16.4864V8.89441C91.2198 8.3043 91.1886 7.93548 91.1262 7.78796C91.0638 7.64043 90.9361 7.51276 90.7432 7.40496C90.5559 7.29147 90.3006 7.23473 89.9772 7.23473H89.5942V6.91982H95.6286V7.23473H95.2456C94.9108 7.23473 94.6413 7.29431 94.437 7.41347C94.2895 7.4929 94.1732 7.62908 94.0881 7.822C94.0257 7.95818 93.9945 8.31565 93.9945 8.89441V16.4864C93.9945 17.0765 94.0257 17.4453 94.0881 17.5928C94.1562 17.7403 94.2838 17.8708 94.4711 17.9843C94.664 18.0921 94.9222 18.146 95.2456 18.146H95.6286ZM100.378 6.91982L106.072 14.0777V9.1157C106.072 8.42346 105.972 7.95534 105.774 7.71136C105.502 7.38226 105.045 7.22338 104.404 7.23473V6.91982H108.217V7.23473C107.729 7.29715 107.4 7.37942 107.229 7.48156C107.065 7.57802 106.934 7.73973 106.838 7.96669C106.747 8.18798 106.702 8.57098 106.702 9.1157V18.7248H106.412L98.6075 9.1157V16.4523C98.6075 17.1162 98.7579 17.5644 99.0586 17.7971C99.365 18.0297 99.7139 18.146 100.105 18.146H100.378V18.4609H96.284V18.146C96.9195 18.1404 97.362 18.0098 97.6117 17.7545C97.8614 17.4992 97.9862 17.0651 97.9862 16.4523V8.30714L97.7394 8.00074C97.4954 7.69433 97.2798 7.4929 97.0925 7.39644C96.9053 7.29998 96.6357 7.24608 96.284 7.23473V6.91982H100.378ZM113.383 7.58369V12.2818H113.613C114.345 12.2818 114.875 12.052 115.204 11.5924C115.533 11.1328 115.743 10.4548 115.834 9.55828H116.157V15.6012H115.834C115.766 14.943 115.621 14.404 115.4 13.9841C115.184 13.5642 114.932 13.2833 114.642 13.1415C114.353 12.9939 113.933 12.9202 113.383 12.9202V16.1714C113.383 16.8069 113.408 17.1956 113.459 17.3375C113.516 17.4793 113.618 17.5956 113.766 17.6864C113.913 17.7772 114.152 17.8226 114.481 17.8226H115.17C116.248 17.8226 117.111 17.5729 117.758 17.0736C118.41 16.5743 118.878 15.814 119.162 14.7926H119.477L118.958 18.4609H108.983V18.146H109.366C109.7 18.146 109.97 18.0864 110.174 17.9673C110.322 17.8879 110.435 17.7517 110.515 17.5588C110.577 17.4226 110.608 17.0651 110.608 16.4864V8.89441C110.608 8.37239 110.594 8.0518 110.566 7.93265C110.509 7.73405 110.404 7.58085 110.251 7.47304C110.035 7.31417 109.74 7.23473 109.366 7.23473H108.983V6.91982H118.643V10.3328H118.319C118.155 9.4987 117.922 8.90008 117.621 8.53694C117.326 8.1738 116.906 7.90711 116.362 7.73689C116.044 7.63476 115.448 7.58369 114.574 7.58369H113.383ZM128.448 6.65597L128.541 10.503H128.192C128.028 9.53842 127.622 8.7639 126.975 8.17947C126.334 7.58936 125.639 7.29431 124.89 7.29431C124.311 7.29431 123.852 7.45035 123.511 7.76242C123.176 8.06883 123.009 8.42346 123.009 8.82632C123.009 9.08165 123.069 9.30862 123.188 9.50721C123.352 9.77389 123.616 10.0377 123.979 10.2987C124.246 10.486 124.862 10.8179 125.826 11.2946C127.177 11.9584 128.087 12.5854 128.558 13.1755C129.024 13.7656 129.256 14.4408 129.256 15.2012C129.256 16.1658 128.879 16.997 128.124 17.6949C127.375 18.3872 126.422 18.7333 125.264 18.7333C124.901 18.7333 124.558 18.6964 124.235 18.6226C123.911 18.5489 123.505 18.4099 123.017 18.2056C122.745 18.0921 122.521 18.0354 122.345 18.0354C122.198 18.0354 122.042 18.0921 121.877 18.2056C121.712 18.3191 121.579 18.4921 121.477 18.7248H121.162V14.3671H121.477C121.727 15.5927 122.206 16.5289 122.915 17.1758C123.63 17.8169 124.399 18.1375 125.222 18.1375C125.857 18.1375 126.362 17.9645 126.737 17.6183C127.117 17.2722 127.307 16.8694 127.307 16.4098C127.307 16.1374 127.233 15.8735 127.086 15.6182C126.944 15.3629 126.725 15.1217 126.43 14.8948C126.135 14.6621 125.613 14.3614 124.864 13.9926C123.815 13.4762 123.06 13.0365 122.6 12.6734C122.141 12.3102 121.786 11.9045 121.537 11.4563C121.293 11.008 121.171 10.5144 121.171 9.97532C121.171 9.05612 121.508 8.27309 122.183 7.62625C122.859 6.9794 123.71 6.65597 124.737 6.65597C125.111 6.65597 125.474 6.70137 125.826 6.79215C126.093 6.86024 126.416 6.98791 126.796 7.17515C127.182 7.35673 127.452 7.44751 127.605 7.44751C127.753 7.44751 127.869 7.40212 127.954 7.31133C128.039 7.22055 128.118 7.00209 128.192 6.65597H128.448ZM138.15 6.65597L138.244 10.503H137.895C137.73 9.53842 137.325 8.7639 136.678 8.17947C136.037 7.58936 135.342 7.29431 134.593 7.29431C134.014 7.29431 133.554 7.45035 133.214 7.76242C132.879 8.06883 132.712 8.42346 132.712 8.82632C132.712 9.08165 132.771 9.30862 132.89 9.50721C133.055 9.77389 133.319 10.0377 133.682 10.2987C133.949 10.486 134.564 10.8179 135.529 11.2946C136.879 11.9584 137.79 12.5854 138.261 13.1755C138.726 13.7656 138.959 14.4408 138.959 15.2012C138.959 16.1658 138.582 16.997 137.827 17.6949C137.078 18.3872 136.125 18.7333 134.967 18.7333C134.604 18.7333 134.261 18.6964 133.937 18.6226C133.614 18.5489 133.208 18.4099 132.72 18.2056C132.448 18.0921 132.224 18.0354 132.048 18.0354C131.9 18.0354 131.744 18.0921 131.58 18.2056C131.415 18.3191 131.282 18.4921 131.18 18.7248H130.865V14.3671H131.18C131.429 15.5927 131.909 16.5289 132.618 17.1758C133.333 17.8169 134.102 18.1375 134.925 18.1375C135.56 18.1375 136.065 17.9645 136.44 17.6183C136.82 17.2722 137.01 16.8694 137.01 16.4098C137.01 16.1374 136.936 15.8735 136.789 15.6182C136.647 15.3629 136.428 15.1217 136.133 14.8948C135.838 14.6621 135.316 14.3614 134.567 13.9926C133.517 13.4762 132.763 13.0365 132.303 12.6734C131.844 12.3102 131.489 11.9045 131.239 11.4563C130.995 11.008 130.873 10.5144 130.873 9.97532C130.873 9.05612 131.211 8.27309 131.886 7.62625C132.561 6.9794 133.412 6.65597 134.439 6.65597C134.814 6.65597 135.177 6.70137 135.529 6.79215C135.796 6.86024 136.119 6.98791 136.499 7.17515C136.885 7.35673 137.154 7.44751 137.308 7.44751C137.455 7.44751 137.572 7.40212 137.657 7.31133C137.742 7.22055 137.821 7.00209 137.895 6.65597H138.15ZM152.211 6.65597L152.304 10.503H151.955C151.791 9.53842 151.385 8.7639 150.738 8.17947C150.097 7.58936 149.402 7.29431 148.653 7.29431C148.074 7.29431 147.615 7.45035 147.274 7.76242C146.939 8.06883 146.772 8.42346 146.772 8.82632C146.772 9.08165 146.832 9.30862 146.951 9.50721C147.115 9.77389 147.379 10.0377 147.742 10.2987C148.009 10.486 148.625 10.8179 149.589 11.2946C150.94 11.9584 151.85 12.5854 152.321 13.1755C152.787 13.7656 153.019 14.4408 153.019 15.2012C153.019 16.1658 152.642 16.997 151.887 17.6949C151.138 18.3872 150.185 18.7333 149.028 18.7333C148.664 18.7333 148.321 18.6964 147.998 18.6226C147.674 18.5489 147.269 18.4099 146.781 18.2056C146.508 18.0921 146.284 18.0354 146.108 18.0354C145.961 18.0354 145.805 18.0921 145.64 18.2056C145.476 18.3191 145.342 18.4921 145.24 18.7248H144.925V14.3671H145.24C145.49 15.5927 145.969 16.5289 146.678 17.1758C147.393 17.8169 148.162 18.1375 148.985 18.1375C149.62 18.1375 150.125 17.9645 150.5 17.6183C150.88 17.2722 151.07 16.8694 151.07 16.4098C151.07 16.1374 150.996 15.8735 150.849 15.6182C150.707 15.3629 150.489 15.1217 150.194 14.8948C149.899 14.6621 149.376 14.3614 148.628 13.9926C147.578 13.4762 146.823 13.0365 146.364 12.6734C145.904 12.3102 145.549 11.9045 145.3 11.4563C145.056 11.008 144.934 10.5144 144.934 9.97532C144.934 9.05612 145.271 8.27309 145.946 7.62625C146.622 6.9794 147.473 6.65597 148.5 6.65597C148.874 6.65597 149.237 6.70137 149.589 6.79215C149.856 6.86024 150.179 6.98791 150.56 7.17515C150.945 7.35673 151.215 7.44751 151.368 7.44751C151.516 7.44751 151.632 7.40212 151.717 7.31133C151.802 7.22055 151.882 7.00209 151.955 6.65597H152.211ZM158.475 7.58369V12.2818H158.705C159.437 12.2818 159.967 12.052 160.296 11.5924C160.625 11.1328 160.835 10.4548 160.926 9.55828H161.25V15.6012H160.926C160.858 14.943 160.713 14.404 160.492 13.9841C160.276 13.5642 160.024 13.2833 159.735 13.1415C159.445 12.9939 159.025 12.9202 158.475 12.9202V16.1714C158.475 16.8069 158.5 17.1956 158.552 17.3375C158.608 17.4793 158.71 17.5956 158.858 17.6864C159.005 17.7772 159.244 17.8226 159.573 17.8226H160.262C161.34 17.8226 162.203 17.5729 162.85 17.0736C163.502 16.5743 163.97 15.814 164.254 14.7926H164.569L164.05 18.4609H154.075V18.146H154.458C154.792 18.146 155.062 18.0864 155.266 17.9673C155.414 17.8879 155.527 17.7517 155.607 17.5588C155.669 17.4226 155.7 17.0651 155.7 16.4864V8.89441C155.7 8.37239 155.686 8.0518 155.658 7.93265C155.601 7.73405 155.496 7.58085 155.343 7.47304C155.127 7.31417 154.832 7.23473 154.458 7.23473H154.075V6.91982H163.735V10.3328H163.411C163.247 9.4987 163.014 8.90008 162.713 8.53694C162.418 8.1738 161.999 7.90711 161.454 7.73689C161.136 7.63476 160.54 7.58369 159.666 7.58369H158.475ZM169.982 13.201V16.4353C169.982 17.0594 170.019 17.4538 170.093 17.6183C170.172 17.7772 170.308 17.9049 170.501 18.0013C170.694 18.0978 171.054 18.146 171.582 18.146V18.4609H165.675V18.146C166.209 18.146 166.569 18.0978 166.756 18.0013C166.949 17.8992 167.083 17.7687 167.156 17.6098C167.236 17.4509 167.275 17.0594 167.275 16.4353V8.94547C167.275 8.32132 167.236 7.92981 167.156 7.77094C167.083 7.60639 166.949 7.47588 166.756 7.37942C166.563 7.28296 166.203 7.23473 165.675 7.23473V6.91982H171.037C172.433 6.91982 173.455 7.01628 174.101 7.2092C174.748 7.40212 175.276 7.75959 175.684 8.2816C176.093 8.79795 176.297 9.40508 176.297 10.103C176.297 10.9541 175.991 11.6577 175.378 12.2138C174.987 12.5655 174.439 12.8294 173.735 13.0053L176.51 16.9119C176.873 17.4169 177.131 17.7318 177.285 17.8566C177.517 18.0325 177.787 18.129 178.093 18.146V18.4609H174.459L170.739 13.201H169.982ZM169.982 7.54113V12.5968H170.467C171.256 12.5968 171.846 12.5258 172.237 12.384C172.629 12.2365 172.935 11.9754 173.157 11.601C173.384 11.2208 173.497 10.7271 173.497 10.12C173.497 9.24053 173.29 8.59084 172.876 8.17096C172.467 7.75108 171.806 7.54113 170.893 7.54113H169.982ZM189.745 6.91982V7.23473C189.325 7.30282 188.95 7.52695 188.621 7.90711C188.383 8.19082 188.028 8.85753 187.558 9.90723L183.583 18.7248H183.302L179.344 9.54977C178.868 8.44332 178.547 7.79363 178.382 7.60071C178.224 7.40779 177.92 7.2858 177.472 7.23473V6.91982H183.004V7.23473H182.817C182.317 7.23473 181.977 7.29715 181.795 7.42198C181.665 7.50709 181.6 7.63192 181.6 7.79647C181.6 7.8986 181.622 8.0206 181.668 8.16245C181.713 8.29863 181.866 8.67028 182.127 9.27741L184.587 15.0224L186.868 9.90723C187.14 9.28876 187.308 8.87455 187.37 8.66461C187.433 8.45466 187.464 8.27593 187.464 8.1284C187.464 7.95818 187.418 7.80782 187.328 7.67731C187.237 7.54681 187.104 7.44751 186.928 7.37942C186.684 7.28296 186.36 7.23473 185.957 7.23473V6.91982H189.745ZM196.315 18.146V18.4609H190.281V18.146H190.664C190.999 18.146 191.268 18.0864 191.473 17.9673C191.62 17.8879 191.734 17.7517 191.813 17.5588C191.875 17.4226 191.907 17.0651 191.907 16.4864V8.89441C191.907 8.3043 191.875 7.93548 191.813 7.78796C191.751 7.64043 191.623 7.51276 191.43 7.40496C191.243 7.29147 190.987 7.23473 190.664 7.23473H190.281V6.91982H196.315V7.23473H195.932C195.598 7.23473 195.328 7.29431 195.124 7.41347C194.976 7.4929 194.86 7.62908 194.775 7.822C194.713 7.95818 194.681 8.31565 194.681 8.89441V16.4864C194.681 17.0765 194.713 17.4453 194.775 17.5928C194.843 17.7403 194.971 17.8708 195.158 17.9843C195.351 18.0921 195.609 18.146 195.932 18.146H196.315ZM208.359 6.65597V10.6562H208.027C207.777 9.61218 207.312 8.81213 206.631 8.25607C205.95 7.70001 205.178 7.42198 204.316 7.42198C203.595 7.42198 202.934 7.62908 202.333 8.04329C201.731 8.4575 201.292 8.99938 201.014 9.66892C200.656 10.5257 200.477 11.479 200.477 12.5287C200.477 13.5614 200.608 14.5033 200.869 15.3544C201.13 16.1998 201.538 16.841 202.095 17.2779C202.651 17.7091 203.371 17.9247 204.256 17.9247C204.983 17.9247 205.647 17.7659 206.248 17.4481C206.855 17.1304 207.493 16.5828 208.163 15.8055V16.8013C207.516 17.4765 206.841 17.9673 206.137 18.2737C205.439 18.5744 204.622 18.7248 203.686 18.7248C202.455 18.7248 201.36 18.478 200.401 17.9843C199.448 17.4907 198.71 16.7814 198.188 15.8565C197.672 14.9316 197.413 13.9472 197.413 12.9032C197.413 11.8024 197.7 10.7583 198.273 9.77105C198.852 8.78376 199.629 8.01776 200.605 7.47304C201.587 6.92833 202.628 6.65597 203.729 6.65597C204.54 6.65597 205.397 6.83187 206.299 7.18367C206.821 7.38793 207.153 7.49007 207.295 7.49007C207.476 7.49007 207.632 7.42482 207.763 7.29431C207.899 7.15813 207.987 6.94535 208.027 6.65597H208.359ZM214.07 7.58369V12.2818H214.3C215.031 12.2818 215.562 12.052 215.891 11.5924C216.22 11.1328 216.43 10.4548 216.521 9.55828H216.844V15.6012H216.521C216.453 14.943 216.308 14.404 216.087 13.9841C215.871 13.5642 215.619 13.2833 215.329 13.1415C215.04 12.9939 214.62 12.9202 214.07 12.9202V16.1714C214.07 16.8069 214.095 17.1956 214.146 17.3375C214.203 17.4793 214.305 17.5956 214.453 17.6864C214.6 17.7772 214.839 17.8226 215.168 17.8226H215.857C216.935 17.8226 217.798 17.5729 218.444 17.0736C219.097 16.5743 219.565 15.814 219.849 14.7926H220.164L219.645 18.4609H209.669V18.146H210.052C210.387 18.146 210.657 18.0864 210.861 17.9673C211.009 17.8879 211.122 17.7517 211.201 17.5588C211.264 17.4226 211.295 17.0651 211.295 16.4864V8.89441C211.295 8.37239 211.281 8.0518 211.253 7.93265C211.196 7.73405 211.091 7.58085 210.938 7.47304C210.722 7.31417 210.427 7.23473 210.052 7.23473H209.669V6.91982H219.33V10.3328H219.006C218.842 9.4987 218.609 8.90008 218.308 8.53694C218.013 8.1738 217.593 7.90711 217.049 7.73689C216.731 7.63476 216.135 7.58369 215.261 7.58369H214.07ZM77.585 26.9198V30.0434H77.2786C77.097 29.3228 76.8956 28.8065 76.6743 28.4944C76.453 28.1766 76.1494 27.9241 75.7636 27.7369C75.548 27.6348 75.1706 27.5837 74.6316 27.5837H73.772V36.4864C73.772 37.0765 73.8032 37.4453 73.8656 37.5928C73.9337 37.7403 74.0613 37.8708 74.2486 37.9843C74.4415 38.0921 74.7025 38.146 75.0316 38.146H75.4146V38.4609H69.3717V38.146H69.7547C70.0895 38.146 70.359 38.0864 70.5633 37.9673C70.7108 37.8879 70.8271 37.7517 70.9122 37.5588C70.9746 37.4226 71.0058 37.0651 71.0058 36.4864V27.5837H70.1717C69.3944 27.5837 68.8298 27.7482 68.478 28.0773C67.9844 28.5369 67.6723 29.1923 67.5418 30.0434H67.2184V26.9198H77.585ZM78.6233 26.9198H84.5811V27.2347H84.2832C83.835 27.2347 83.5257 27.283 83.3555 27.3794C83.191 27.4702 83.0718 27.5979 82.998 27.7624C82.93 27.927 82.8959 28.3383 82.8959 28.9965V34.6479C82.8959 35.6806 82.9725 36.3644 83.1257 36.6991C83.2846 37.0339 83.5428 37.3119 83.9002 37.5332C84.2577 37.7545 84.7088 37.8652 85.2535 37.8652C85.8777 37.8652 86.4082 37.7261 86.8451 37.4481C87.2877 37.1644 87.6168 36.7757 87.8324 36.2821C88.0537 35.7884 88.1643 34.9288 88.1643 33.7032V28.9965C88.1643 28.4802 88.1104 28.1114 88.0026 27.8901C87.8948 27.6688 87.7586 27.5156 87.5941 27.4305C87.3387 27.3 86.9784 27.2347 86.5132 27.2347V26.9198H90.5049V27.2347H90.2666C89.9431 27.2347 89.6736 27.3 89.458 27.4305C89.2424 27.561 89.0864 27.7567 88.9899 28.0178C88.9161 28.1993 88.8793 28.5256 88.8793 28.9965V33.3798C88.8793 34.7359 88.7885 35.7147 88.6069 36.3161C88.431 36.9176 87.9969 37.4708 87.3047 37.9758C86.6124 38.4808 85.6677 38.7333 84.4705 38.7333C83.4718 38.7333 82.7002 38.6 82.1554 38.3333C81.4121 37.9701 80.8873 37.5049 80.5809 36.9374C80.2745 36.37 80.1213 35.6069 80.1213 34.6479V28.9965C80.1213 28.3327 80.0844 27.9213 80.0106 27.7624C79.9369 27.5979 79.8092 27.4674 79.6276 27.3709C79.4461 27.2745 79.1113 27.2291 78.6233 27.2347V26.9198ZM95.4413 33.201V36.4353C95.4413 37.0594 95.4782 37.4538 95.552 37.6183C95.6314 37.7772 95.7676 37.9049 95.9605 38.0013C96.1534 38.0978 96.5138 38.146 97.0414 38.146V38.4609H91.1347V38.146C91.6681 38.146 92.0284 38.0978 92.2156 38.0013C92.4085 37.8992 92.5419 37.7687 92.6156 37.6098C92.6951 37.4509 92.7348 37.0594 92.7348 36.4353V28.9455C92.7348 28.3213 92.6951 27.9298 92.6156 27.7709C92.5419 27.6064 92.4085 27.4759 92.2156 27.3794C92.0227 27.283 91.6624 27.2347 91.1347 27.2347V26.9198H96.4967C97.8926 26.9198 98.9139 27.0163 99.5607 27.2092C100.208 27.4021 100.735 27.7596 101.144 28.2816C101.552 28.7979 101.757 29.4051 101.757 30.103C101.757 30.9541 101.45 31.6577 100.837 32.2138C100.446 32.5655 99.8984 32.8294 99.1948 33.0053L101.969 36.9119C102.333 37.4169 102.591 37.7318 102.744 37.8566C102.977 38.0325 103.246 38.129 103.552 38.146V38.4609H99.9182L96.1988 33.201H95.4413ZM95.4413 27.5411V32.5968H95.9265C96.7152 32.5968 97.3053 32.5258 97.6968 32.384C98.0883 32.2365 98.3947 31.9754 98.616 31.601C98.843 31.2208 98.9565 30.7271 98.9565 30.12C98.9565 29.2405 98.7493 28.5908 98.3351 28.171C97.9266 27.7511 97.2656 27.5411 96.352 27.5411H95.4413ZM110.668 31.3371L114.728 36.4183C115.301 37.1332 115.794 37.6183 116.209 37.8737C116.509 38.0552 116.827 38.146 117.162 38.146V38.4609H111.153V38.146C111.533 38.112 111.777 38.0524 111.885 37.9673C111.998 37.8822 112.055 37.7772 112.055 37.6524C112.055 37.4141 111.794 36.9658 111.272 36.3076L108.625 32.9798L108.2 33.3372V36.4864C108.2 37.0878 108.234 37.4623 108.302 37.6098C108.37 37.7573 108.5 37.885 108.693 37.9928C108.886 38.095 109.195 38.146 109.621 38.146V38.4609H103.799V38.146H104.182C104.517 38.146 104.787 38.0864 104.991 37.9673C105.138 37.8879 105.252 37.7517 105.331 37.5588C105.394 37.4226 105.425 37.0651 105.425 36.4864V28.8944C105.425 28.3043 105.394 27.9355 105.331 27.788C105.269 27.6404 105.141 27.5128 104.948 27.405C104.761 27.2915 104.506 27.2347 104.182 27.2347H103.799V26.9198H109.544V27.2347C109.153 27.2347 108.855 27.2915 108.651 27.405C108.503 27.4844 108.387 27.6177 108.302 27.805C108.234 27.9468 108.2 28.31 108.2 28.8944V32.4861L112.481 29.0221C113.076 28.5398 113.374 28.1539 113.374 27.8646C113.374 27.6489 113.252 27.4787 113.008 27.3539C112.884 27.2915 112.574 27.2518 112.081 27.2347V26.9198H116.583V27.2347C116.18 27.2631 115.862 27.3369 115.63 27.456C115.403 27.5695 114.875 27.961 114.047 28.6306L110.668 31.3371ZM125.281 34.5288L128.414 26.9198H133.112V27.2347H132.737C132.397 27.2347 132.124 27.2943 131.92 27.4135C131.778 27.4929 131.665 27.6262 131.58 27.8135C131.517 27.9497 131.486 28.3043 131.486 28.8774V36.4864C131.486 37.0765 131.517 37.4453 131.58 37.5928C131.642 37.7403 131.77 37.8708 131.963 37.9843C132.156 38.0921 132.414 38.146 132.737 38.146H133.112V38.4609H127.086V38.146H127.46C127.801 38.146 128.073 38.0864 128.277 37.9673C128.419 37.8879 128.533 37.7517 128.618 37.5588C128.68 37.4226 128.711 37.0651 128.711 36.4864V27.9326L124.286 38.4609H124.081L119.587 28.0092V36.1374C119.587 36.7048 119.602 37.0538 119.63 37.1843C119.704 37.468 119.863 37.7006 120.107 37.8822C120.356 38.0581 120.745 38.146 121.273 38.146V38.4609H117.324V38.146H117.443C117.698 38.1517 117.936 38.112 118.158 38.0269C118.379 37.9361 118.546 37.8169 118.66 37.6694C118.773 37.5219 118.861 37.3148 118.924 37.0481C118.935 36.9857 118.941 36.6963 118.941 36.1799V28.8774C118.941 28.293 118.909 27.9298 118.847 27.788C118.785 27.6404 118.657 27.5128 118.464 27.405C118.271 27.2915 118.013 27.2347 117.689 27.2347H117.324V26.9198H122.039L125.281 34.5288ZM138.184 27.5837V32.2818H138.414C139.146 32.2818 139.677 32.052 140.006 31.5924C140.335 31.1328 140.545 30.4548 140.636 29.5583H140.959V35.6012H140.636C140.567 34.943 140.423 34.404 140.201 33.9841C139.986 33.5642 139.733 33.2833 139.444 33.1415C139.155 32.9939 138.735 32.9202 138.184 32.9202V36.1714C138.184 36.8069 138.21 37.1956 138.261 37.3375C138.318 37.4793 138.42 37.5956 138.567 37.6864C138.715 37.7772 138.953 37.8226 139.282 37.8226H139.972C141.05 37.8226 141.912 37.5729 142.559 37.0736C143.212 36.5743 143.68 35.814 143.963 34.7926H144.278L143.759 38.4609H133.784V38.146H134.167C134.502 38.146 134.771 38.0864 134.976 37.9673C135.123 37.8879 135.237 37.7517 135.316 37.5588C135.378 37.4226 135.41 37.0651 135.41 36.4864V28.8944C135.41 28.3724 135.396 28.0518 135.367 27.9326C135.31 27.7341 135.205 27.5809 135.052 27.473C134.837 27.3142 134.542 27.2347 134.167 27.2347H133.784V26.9198H143.444V30.3328H143.121C142.956 29.4987 142.724 28.9001 142.423 28.5369C142.128 28.1738 141.708 27.9071 141.163 27.7369C140.845 27.6348 140.25 27.5837 139.376 27.5837H138.184ZM149.402 26.9198L155.096 34.0777V29.1157C155.096 28.4235 154.997 27.9553 154.798 27.7114C154.526 27.3823 154.069 27.2234 153.428 27.2347V26.9198H157.241V27.2347C156.753 27.2971 156.424 27.3794 156.254 27.4816C156.089 27.578 155.958 27.7397 155.862 27.9667C155.771 28.188 155.726 28.571 155.726 29.1157V38.7248H155.436L147.632 29.1157V36.4523C147.632 37.1162 147.782 37.5644 148.083 37.7971C148.389 38.0297 148.738 38.146 149.13 38.146H149.402V38.4609H145.308V38.146C145.944 38.1404 146.386 38.0098 146.636 37.7545C146.886 37.4992 147.01 37.0651 147.01 36.4523V28.3071L146.764 28.0007C146.52 27.6943 146.304 27.4929 146.117 27.3964C145.929 27.3 145.66 27.2461 145.308 27.2347V26.9198H149.402ZM164.041 38.146V38.4609H158.007V38.146H158.39C158.725 38.146 158.994 38.0864 159.198 37.9673C159.346 37.8879 159.459 37.7517 159.539 37.5588C159.601 37.4226 159.632 37.0651 159.632 36.4864V28.8944C159.632 28.3043 159.601 27.9355 159.539 27.788C159.476 27.6404 159.349 27.5128 159.156 27.405C158.969 27.2915 158.713 27.2347 158.39 27.2347H158.007V26.9198H164.041V27.2347H163.658C163.323 27.2347 163.054 27.2943 162.85 27.4135C162.702 27.4929 162.586 27.6291 162.501 27.822C162.438 27.9582 162.407 28.3156 162.407 28.8944V36.4864C162.407 37.0765 162.438 37.4453 162.501 37.5928C162.569 37.7403 162.696 37.8708 162.884 37.9843C163.077 38.0921 163.335 38.146 163.658 38.146H164.041ZM172.637 26.656L172.731 30.503H172.382C172.218 29.5384 171.812 28.7639 171.165 28.1795C170.524 27.5894 169.829 27.2943 169.08 27.2943C168.501 27.2943 168.041 27.4503 167.701 27.7624C167.366 28.0688 167.199 28.4235 167.199 28.8263C167.199 29.0817 167.258 29.3086 167.378 29.5072C167.542 29.7739 167.806 30.0377 168.169 30.2987C168.436 30.486 169.051 30.8179 170.016 31.2946C171.366 31.9584 172.277 32.5854 172.748 33.1755C173.213 33.7656 173.446 34.4408 173.446 35.2012C173.446 36.1658 173.069 36.997 172.314 37.6949C171.565 38.3872 170.612 38.7333 169.454 38.7333C169.091 38.7333 168.748 38.6964 168.424 38.6226C168.101 38.5489 167.695 38.4099 167.207 38.2056C166.935 38.0921 166.711 38.0354 166.535 38.0354C166.387 38.0354 166.231 38.0921 166.067 38.2056C165.902 38.3191 165.769 38.4921 165.667 38.7248H165.352V34.3671H165.667C165.916 35.5927 166.396 36.5289 167.105 37.1758C167.82 37.8169 168.589 38.1375 169.412 38.1375C170.047 38.1375 170.552 37.9645 170.927 37.6183C171.307 37.2722 171.497 36.8694 171.497 36.4098C171.497 36.1374 171.423 35.8735 171.276 35.6182C171.134 35.3629 170.915 35.1217 170.62 34.8948C170.325 34.6621 169.803 34.3614 169.054 33.9926C168.005 33.4762 167.25 33.0365 166.79 32.6734C166.331 32.3102 165.976 31.9045 165.726 31.4563C165.482 31.008 165.36 30.5144 165.36 29.9753C165.36 29.0561 165.698 28.2731 166.373 27.6262C167.048 26.9794 167.9 26.656 168.927 26.656C169.301 26.656 169.664 26.7014 170.016 26.7922C170.283 26.8602 170.606 26.9879 170.986 27.1752C171.372 27.3567 171.642 27.4475 171.795 27.4475C171.942 27.4475 172.059 27.4021 172.144 27.3113C172.229 27.2205 172.308 27.0021 172.382 26.656H172.637ZM185.149 26.9198V30.0434H184.842C184.661 29.3228 184.459 28.8065 184.238 28.4944C184.017 28.1766 183.713 27.9241 183.327 27.7369C183.112 27.6348 182.735 27.5837 182.195 27.5837H181.336V36.4864C181.336 37.0765 181.367 37.4453 181.429 37.5928C181.498 37.7403 181.625 37.8708 181.812 37.9843C182.005 38.0921 182.266 38.146 182.596 38.146H182.979V38.4609H176.936V38.146H177.319C177.653 38.146 177.923 38.0864 178.127 37.9673C178.275 37.8879 178.391 37.7517 178.476 37.5588C178.539 37.4226 178.57 37.0651 178.57 36.4864V27.5837H177.736C176.958 27.5837 176.394 27.7482 176.042 28.0773C175.548 28.5369 175.236 29.1923 175.106 30.0434H174.782V26.9198H185.149ZM191.736 35.1756H187.66L187.175 36.2991C187.016 36.6736 186.936 36.9828 186.936 37.2268C186.936 37.5502 187.067 37.7886 187.328 37.9418C187.481 38.0325 187.858 38.1006 188.46 38.146V38.4609H184.621V38.146C185.035 38.0836 185.376 37.9134 185.643 37.6354C185.909 37.3517 186.238 36.7701 186.63 35.8906L190.758 26.6815H190.919L195.081 36.1459C195.479 37.0424 195.805 37.607 196.06 37.8396C196.253 38.0155 196.525 38.1177 196.877 38.146V38.4609H191.294V38.146H191.524C191.972 38.146 192.287 38.0836 192.468 37.9588C192.593 37.868 192.656 37.7375 192.656 37.5673C192.656 37.4651 192.639 37.3602 192.605 37.2524C192.593 37.2013 192.508 36.9885 192.349 36.614L191.736 35.1756ZM191.447 34.5458L189.728 30.5711L187.958 34.5458H191.447ZM201.422 26.9198L207.116 34.0777V29.1157C207.116 28.4235 207.017 27.9553 206.818 27.7114C206.546 27.3823 206.089 27.2234 205.448 27.2347V26.9198H209.261V27.2347C208.773 27.2971 208.444 27.3794 208.274 27.4816C208.109 27.578 207.979 27.7397 207.882 27.9667C207.791 28.188 207.746 28.571 207.746 29.1157V38.7248H207.457L199.652 29.1157V36.4523C199.652 37.1162 199.802 37.5644 200.103 37.7971C200.409 38.0297 200.758 38.146 201.15 38.146H201.422V38.4609H197.328V38.146C197.964 38.1404 198.406 38.0098 198.656 37.7545C198.906 37.4992 199.031 37.0651 199.031 36.4523V28.3071L198.784 28.0007C198.54 27.6943 198.324 27.4929 198.137 27.3964C197.95 27.3 197.68 27.2461 197.328 27.2347V26.9198H201.422Z" fill="#00295A"/>
<defs>
<clipPath id="clip0_327_2">
<rect width="44.8" height="39.3824" fill="white"/>
</clipPath>
</defs>
</svg>
