<svg width="52" height="58" viewBox="0 0 52 58" fill="none" xmlns="http://www.w3.org/2000/svg">
<path d="M25.6641 7.81338V1.64844" stroke="#1C1F35" stroke-width="2" stroke-linecap="round" stroke-linejoin="round"/>
<path d="M50.3234 36.5832C46.5731 49.6836 29.2085 54.256 26.126 54.9752C25.8226 55.0524 25.5047 55.0524 25.2013 54.9752C22.1188 54.256 4.75424 49.6836 1.00391 36.5832V27.7981C1.00387 27.3654 1.14043 26.9437 1.39411 26.5932C1.6478 26.2426 2.00566 25.9811 2.4167 25.8459L25.0215 18.2938C25.4399 18.1651 25.8874 18.1651 26.3058 18.2938L48.9106 25.8459C49.3217 25.9811 49.6795 26.2426 49.9332 26.5932C50.1869 26.9437 50.3235 27.3654 50.3234 27.7981V36.5832Z" stroke="#1C1F35" stroke-width="2" stroke-linecap="round" stroke-linejoin="round"/>
<path d="M26.131 48.3136C23.6922 47.7521 9.95355 44.1825 6.98633 33.9551" stroke="#1C1F35" stroke-width="2" stroke-linecap="round" stroke-linejoin="round"/>
<path d="M6.98633 10.6309V23.7842L25.5327 17.2032L44.0791 23.7842V10.6309C44.0791 8.97401 42.736 7.63086 41.0791 7.63086H9.98633C8.32947 7.63086 6.98633 8.974 6.98633 10.6309Z" fill="#FFD550" stroke="#1C1F35" stroke-width="2"/>
<path d="M25.6641 38.6385V18.1914" stroke="#1C1F35" stroke-width="2" stroke-linecap="round" stroke-linejoin="round"/>
<path d="M30.918 37.5438L30.918 29.168" stroke="#1C1F35" stroke-width="2" stroke-linecap="round" stroke-linejoin="round"/>
<path d="M11.7734 18.4007V12.418" stroke="#1C1F35" stroke-width="2" stroke-linecap="round" stroke-linejoin="round"/>
<path d="M48.8652 20.7923V10.0234" stroke="#1C1F35" stroke-width="2" stroke-linecap="round" stroke-linejoin="round"/>
</svg>
