<svg width="56" height="42" viewBox="0 0 56 42" fill="none" xmlns="http://www.w3.org/2000/svg">
<path d="M39.0742 16.0424V6.07812H44.671C47.5056 6.07812 50.0603 7.78754 51.1416 10.4077L53.182 15.3517C53.3178 15.6808 53.0759 16.0424 52.7198 16.0424H39.0742Z" fill="#FFD550" stroke="#1C1F35" stroke-width="2"/>
<path d="M1.43164 22.6836H39.0745" stroke="#1C1F35" stroke-width="2" stroke-linecap="round" stroke-linejoin="round"/>
<path d="M42.3968 40.399C46.0655 40.399 49.0396 37.4249 49.0396 33.7561C49.0396 30.0874 46.0655 27.1133 42.3968 27.1133C38.728 27.1133 35.7539 30.0874 35.7539 33.7561C35.7539 37.4249 38.728 40.399 42.3968 40.399Z" stroke="#1C1F35" stroke-width="2" stroke-linecap="round" stroke-linejoin="round"/>
<path d="M13.6116 40.399C17.2804 40.399 20.2545 37.4249 20.2545 33.7561C20.2545 30.0874 17.2804 27.1133 13.6116 27.1133C9.94286 27.1133 6.96875 30.0874 6.96875 33.7561C6.96875 37.4249 9.94286 40.399 13.6116 40.399Z" fill="#FFD550" stroke="#1C1F35" stroke-width="2" stroke-linecap="round" stroke-linejoin="round"/>
<path d="M35.7539 32.6484H20.2539" stroke="#1C1F35" stroke-width="2" stroke-linecap="round" stroke-linejoin="round"/>
<path d="M6.912 32.6484H3.31378C2.81461 32.6484 2.33588 32.4443 1.98291 32.081C1.62994 31.7176 1.43164 31.2248 1.43164 30.7109V3.58594C1.43164 3.07208 1.62994 2.57927 1.98291 2.21592C2.33588 1.85257 2.81461 1.64844 3.31378 1.64844H39.0745V27.6109" stroke="#1C1F35" stroke-width="2" stroke-linecap="round" stroke-linejoin="round"/>
<path d="M39.0742 16.041H54.5742V30.8029C54.5742 31.2923 54.3701 31.7617 54.0067 32.1077C53.6434 32.4538 53.1506 32.6482 52.6367 32.6482H48.9001" stroke="#1C1F35" stroke-width="2" stroke-linecap="round" stroke-linejoin="round"/>
<path d="M5.85938 15.3513L5.85938 6.07812" stroke="#1C1F35" stroke-width="2" stroke-linecap="round" stroke-linejoin="round"/>
<path d="M25.7893 18.2559L35.0625 18.2559" stroke="#1C1F35" stroke-width="2" stroke-linecap="round" stroke-linejoin="round"/>
<path d="M25.7879 36.9687L29.1094 36.9688" stroke="#1C1F35" stroke-width="2" stroke-linecap="round" stroke-linejoin="round"/>
</svg>
