<svg width="56" height="58" viewBox="0 0 56 58" fill="none" xmlns="http://www.w3.org/2000/svg">
<path d="M24.828 28.8944C32.3518 28.8944 38.451 22.7952 38.451 15.2714C38.451 7.74765 32.3518 1.64844 24.828 1.64844C17.3043 1.64844 11.2051 7.74765 11.2051 15.2714C11.2051 22.7952 17.3043 28.8944 24.828 28.8944Z" fill="#FFD550" stroke="#1C1F35" stroke-width="2" stroke-linecap="round" stroke-linejoin="round"/>
<path d="M5.34766 37.9771C7.73453 35.1323 10.7155 32.8448 14.081 31.2754C17.4466 29.7059 21.115 28.8926 24.8285 28.8926C28.542 28.8926 32.2104 29.7059 35.576 31.2754C38.9415 32.8448 41.9225 35.1323 44.3093 37.9771" stroke="#1C1F35" stroke-width="2" stroke-linecap="round" stroke-linejoin="round"/>
<path d="M51.8926 39.1113L41.6754 39.1113L41.6754 20.9474L51.8926 20.9474L51.8926 39.1113Z" fill="white" stroke="#141414" stroke-linecap="round" stroke-linejoin="round"/>
<path d="M51.8926 27.7578L41.6754 27.7578L41.6754 20.9463L51.8926 20.9463L51.8926 27.7578Z" fill="#FFD550" stroke="black" stroke-linecap="round" stroke-linejoin="round"/>
<path d="M48.4883 25.4883L45.0825 25.4883" stroke="#141414" stroke-linecap="round" stroke-linejoin="round"/>
<path d="M48.4883 31.1641L45.0825 31.1641" stroke="#141414" stroke-linecap="round" stroke-linejoin="round"/>
<path d="M55.2969 28.8945L55.2969 38.5518" stroke="#1C1F35" stroke-linecap="round" stroke-linejoin="round"/>
<path d="M6.71985 22.6274C5.84412 21.4733 3.68546 17.6329 5.35547 10.418" stroke="#1C1F35" stroke-width="1.5" stroke-linecap="round" stroke-linejoin="round"/>
<path d="M35.2436 16.6843C35.1953 17.8447 34.554 21.3283 29.707 25.0117" stroke="#1C1F35" stroke-linecap="round" stroke-linejoin="round"/>
</svg>
