<svg width="57" height="47" viewBox="0 0 57 47" fill="none" xmlns="http://www.w3.org/2000/svg">
<path d="M2.05078 45.6484H54.4317" stroke="#141414" stroke-width="2" stroke-linecap="round" stroke-linejoin="round"/>
<path d="M32.4334 45.6484V3.56148C32.4334 3.05411 32.2284 2.56752 31.8636 2.20876C31.4987 1.84999 31.0038 1.64844 30.4878 1.64844H7.14089C6.62489 1.64844 6.13003 1.84999 5.76516 2.20876C5.40029 2.56752 5.19531 3.05411 5.19531 3.56148V45.6484" stroke="#141414" stroke-width="2" stroke-linecap="round" stroke-linejoin="round"/>
<path d="M32.4316 14.2188H48.2888C49.9456 14.2188 51.2888 15.5619 51.2888 17.2188V44.5997H32.4316V14.2188Z" fill="#FFD550" stroke="#141414" stroke-width="2" stroke-linecap="round" stroke-linejoin="round"/>
<path d="M13.5762 11.0781H20.9095" stroke="#141414" stroke-width="2" stroke-linecap="round" stroke-linejoin="round"/>
<path d="M1.00391 41.457L1.00391 26.7904" stroke="#141414" stroke-width="2" stroke-linecap="round" stroke-linejoin="round"/>
<path d="M55.4805 30.9805L55.4805 16.3138" stroke="#141414" stroke-width="2" stroke-linecap="round" stroke-linejoin="round"/>
<path d="M35.5762 10.0293L42.9095 10.0293" stroke="#141414" stroke-width="2" stroke-linecap="round" stroke-linejoin="round"/>
<path d="M16.7188 26.791H24.0521" stroke="#141414" stroke-width="2" stroke-linecap="round" stroke-linejoin="round"/>
<path d="M13.5762 36.2188H20.9095" stroke="#141414" stroke-width="2" stroke-linecap="round" stroke-linejoin="round"/>
<path d="M39.7656 36.2207H43.9561" stroke="#141414" stroke-width="2" stroke-linecap="round" stroke-linejoin="round"/>
<path d="M39.7656 26.791H43.9561" stroke="#141414" stroke-width="2" stroke-linecap="round" stroke-linejoin="round"/>
</svg>
