<svg width="74" height="56" viewBox="0 0 74 56" fill="none" xmlns="http://www.w3.org/2000/svg">
<path d="M17.4375 43.377H53.0681" stroke="#1C1F35" stroke-width="2" stroke-linecap="round" stroke-linejoin="round"/>
<path d="M34.3535 28.5178L49.7721 19.2352" stroke="#1C1F35" stroke-width="2" stroke-linecap="round" stroke-linejoin="round"/>
<path d="M9.88086 25.9473L15.856 31.9224" stroke="#1C1F35" stroke-width="2" stroke-linecap="round" stroke-linejoin="round"/>
<path d="M1.24219 23.7891L7.21731 29.7642" stroke="#1C1F35" stroke-width="2" stroke-linecap="round" stroke-linejoin="round"/>
<path d="M15.9109 23.5181L25.3054 32.5298C26.5581 33.7328 28.1563 34.4895 29.8624 34.6873C31.5685 34.885 33.2913 34.5134 34.7747 33.6276L72.5022 11.1622L67.8672 5.34158C66.6615 3.83299 64.9689 2.81594 63.0952 2.47416C61.2215 2.13239 59.2903 2.48843 57.6504 3.47797L46.5863 10.141L31.6349 5.03523L27.5232 6.84778C27.2156 6.98283 26.9461 7.19505 26.7396 7.46487C26.5332 7.73469 26.3963 8.05342 26.3417 8.39168C26.2871 8.72994 26.3164 9.07684 26.4271 9.40041C26.5378 9.72397 26.7262 10.0138 26.975 10.2431L34.6252 17.2891L27.6478 21.3737L20.6705 18.3102L16.4841 20.1483C16.1795 20.2824 15.9123 20.4921 15.7068 20.7585C15.5013 21.025 15.3638 21.3397 15.3069 21.6743C15.25 22.0088 15.2755 22.3526 15.3809 22.6746C15.4864 22.9965 15.6685 23.2865 15.9109 23.5181V23.5181Z" stroke="#1C1F35" stroke-width="2" stroke-linecap="round" stroke-linejoin="round"/>
<path d="M68.7231 6.66658C62.7332 11.3711 56.8205 11.9624 52.5273 6.66658L55.9006 4.47394C60.0926 1.74918 65.6747 2.70373 68.7231 6.66658Z" fill="#FFD550" stroke="#1C1F35" stroke-width="2"/>
</svg>
