<svg width="57" height="46" viewBox="0 0 57 46" fill="none" xmlns="http://www.w3.org/2000/svg">
<path d="M2.33374 45H54.7147" stroke="#141414" stroke-width="2" stroke-linecap="round" stroke-linejoin="round"/>
<path d="M32.7147 45V2.91304C32.7147 2.40567 32.5097 1.91908 32.1448 1.56032C31.7799 1.20155 31.2851 1 30.7691 1H7.42214C6.90614 1 6.41128 1.20155 6.04641 1.56032C5.68154 1.91908 5.47656 2.40567 5.47656 2.91304V45" stroke="#141414" stroke-width="2" stroke-linecap="round" stroke-linejoin="round"/>
<path d="M32.7148 13.5714H48.572C50.2288 13.5714 51.572 14.9146 51.572 16.5714V43.9524H32.7148V13.5714Z" fill="#F7901E" stroke="#141414" stroke-width="2" stroke-linecap="round" stroke-linejoin="round"/>
<path d="M13.8577 10.4286H21.191" stroke="#141414" stroke-width="2" stroke-linecap="round" stroke-linejoin="round"/>
<path d="M1.28613 40.8095L1.28613 26.1428" stroke="#141414" stroke-width="2" stroke-linecap="round" stroke-linejoin="round"/>
<path d="M55.7627 30.333L55.7627 15.6663" stroke="#141414" stroke-width="2" stroke-linecap="round" stroke-linejoin="round"/>
<path d="M35.8577 9.38098L43.191 9.38098" stroke="#141414" stroke-width="2" stroke-linecap="round" stroke-linejoin="round"/>
<path d="M17 26.1426H24.3333" stroke="#141414" stroke-width="2" stroke-linecap="round" stroke-linejoin="round"/>
<path d="M13.8577 35.5714H21.191" stroke="#141414" stroke-width="2" stroke-linecap="round" stroke-linejoin="round"/>
<path d="M40.0481 35.5714H44.2386" stroke="#141414" stroke-width="2" stroke-linecap="round" stroke-linejoin="round"/>
<path d="M40.0481 26.1429H44.2386" stroke="#141414" stroke-width="2" stroke-linecap="round" stroke-linejoin="round"/>
</svg>
