<svg width="224" height="42" viewBox="0 0 224 42" fill="none" xmlns="http://www.w3.org/2000/svg">
<g clip-path="url(#clip0_99_63)">
<rect width="44.8" height="39.3824" fill="white"/>
<path d="M17.448 15.3037C20.264 15.9602 22.241 16.7554 23.379 17.6892C25.0132 19.0169 25.8302 20.7386 25.8302 22.8543C25.8302 25.0866 24.9329 26.9323 23.1383 28.3914C20.9351 30.1568 17.7325 31.0396 13.5304 31.0396H-1.5489V30.2298C-0.17739 30.2298 0.749109 30.1058 1.2306 29.8577C1.72668 29.5951 2.06955 29.2595 2.25923 28.851C2.4635 28.4424 2.56563 27.4357 2.56563 25.8307V6.57122C2.56563 4.96626 2.4635 3.95951 2.25923 3.55098C2.06955 3.12785 1.72668 2.79227 1.2306 2.54423C0.734519 2.29619 -0.19198 2.17217 -1.5489 2.17217V1.36239H12.6769C16.0765 1.36239 18.4839 1.6688 19.8992 2.2816C21.3145 2.87981 22.4307 3.78442 23.2477 4.99544C24.0648 6.19186 24.4733 7.46853 24.4733 8.82546C24.4733 10.2553 23.9554 11.532 22.9194 12.6555C21.8835 13.7644 20.0597 14.6471 17.448 15.3037ZM9.48155 14.7127C11.5534 14.7127 13.0781 14.4793 14.0557 14.0124C15.0478 13.5455 15.8065 12.8889 16.3318 12.0427C16.8571 11.1964 17.1197 10.1167 17.1197 8.80357C17.1197 7.49042 16.8571 6.41802 16.3318 5.58636C15.8211 4.7401 15.0843 4.09812 14.1213 3.6604C13.1584 3.22269 11.6118 3.01113 9.48155 3.02572V14.7127ZM9.48155 16.4198V25.9402L9.45966 27.0344C9.45966 27.8223 9.65663 28.4205 10.0506 28.8291C10.4591 29.223 11.0573 29.42 11.8452 29.42C13.0125 29.42 14.0849 29.1647 15.0624 28.654C16.0546 28.1287 16.8133 27.3773 17.3386 26.3998C17.8638 25.4076 18.1264 24.306 18.1264 23.095C18.1264 21.7089 17.8054 20.4687 17.1635 19.3744C16.5215 18.2655 15.6388 17.4922 14.5153 17.0545C13.3918 16.6168 11.7139 16.4052 9.48155 16.4198Z" fill="#091242"/>
<path d="M45.9553 10.6444L46.196 20.5368H45.2987C44.8756 18.0564 43.8323 16.0648 42.169 14.5619C40.5203 13.0445 38.733 12.2858 36.807 12.2858C35.3188 12.2858 34.1369 12.6871 33.2615 13.4895C32.4007 14.2774 31.9702 15.1893 31.9702 16.2253C31.9702 16.8818 32.1234 17.4655 32.4298 17.9761C32.853 18.6619 33.5314 19.3403 34.4652 20.0115C35.151 20.493 36.7341 21.3465 39.2144 22.5721C42.687 24.2792 45.0288 25.8915 46.2398 27.4089C47.4362 28.9263 48.0344 30.6626 48.0344 32.6177C48.0344 35.0981 47.0642 37.2356 45.1236 39.0303C43.1977 40.8103 40.7464 41.7003 37.77 41.7003C36.8362 41.7003 35.9535 41.6055 35.1218 41.4158C34.2901 41.2262 33.2469 40.8687 31.9921 40.3434C31.2918 40.0516 30.7155 39.9057 30.2631 39.9057C29.8838 39.9057 29.4826 40.0516 29.0594 40.3434C28.6363 40.6352 28.2934 41.0802 28.0308 41.6785H27.221V30.4729H28.0308C28.6728 33.6245 29.9057 36.0319 31.7295 37.6952C33.5679 39.344 35.5449 40.1683 37.6605 40.1683C39.2947 40.1683 40.5932 39.7233 41.5562 38.8333C42.5338 37.9433 43.0226 36.9074 43.0226 35.7255C43.0226 35.0252 42.8329 34.3467 42.4535 33.6901C42.0888 33.0336 41.527 32.4135 40.7683 31.8298C40.0096 31.2316 38.6673 30.4583 36.7413 29.51C34.0421 28.1822 32.1016 27.0514 30.9197 26.1177C29.7379 25.1839 28.826 24.1406 28.184 22.988C27.5566 21.8353 27.2429 20.566 27.2429 19.1798C27.2429 16.8162 28.111 14.8027 29.8473 13.1394C31.5836 11.476 33.7722 10.6444 36.4131 10.6444C37.376 10.6444 38.3098 10.7611 39.2144 10.9946C39.9002 11.1696 40.7319 11.4979 41.7094 11.9794C42.7016 12.4463 43.3946 12.6798 43.7886 12.6798C44.1679 12.6798 44.467 12.563 44.6859 12.3296C44.9048 12.0961 45.109 11.5344 45.2987 10.6444H45.9553Z" fill="#091242"/>
</g>
<path d="M63.0734 12.3417C64.1686 12.597 64.9374 12.9062 65.38 13.2694C66.0155 13.7857 66.3332 14.4553 66.3332 15.278C66.3332 16.1461 65.9843 16.8639 65.2863 17.4313C64.4296 18.1179 63.1841 18.4612 61.55 18.4612H55.6858V18.1463C56.2191 18.1463 56.5794 18.098 56.7667 18.0016C56.9596 17.8994 57.0929 17.7689 57.1667 17.6101C57.2462 17.4512 57.2859 17.0597 57.2859 16.4355V8.94572C57.2859 8.32157 57.2462 7.93005 57.1667 7.77118C57.0929 7.60663 56.9596 7.47613 56.7667 7.37967C56.5738 7.28321 56.2135 7.23498 55.6858 7.23498V6.92006H61.218C62.5401 6.92006 63.4763 7.03922 64.0267 7.27753C64.5771 7.51017 65.0112 7.86196 65.3289 8.33292C65.6467 8.79819 65.8055 9.29467 65.8055 9.82237C65.8055 10.3784 65.6041 10.8749 65.2012 11.3118C64.7984 11.743 64.0891 12.0863 63.0734 12.3417ZM59.9754 12.1119C60.7811 12.1119 61.3741 12.0211 61.7542 11.8395C62.1401 11.6579 62.4351 11.4026 62.6394 11.0735C62.8436 10.7444 62.9458 10.3245 62.9458 9.81385C62.9458 9.30319 62.8436 8.88614 62.6394 8.56272C62.4408 8.23362 62.1542 7.98396 61.7798 7.81374C61.4053 7.64351 60.8038 7.56124 59.9754 7.56691V12.1119ZM59.9754 12.7757V16.4781L59.9669 16.9036C59.9669 17.21 60.0435 17.4427 60.1967 17.6016C60.3556 17.7548 60.5882 17.8314 60.8946 17.8314C61.3485 17.8314 61.7656 17.7321 62.1457 17.5335C62.5316 17.3292 62.8266 17.037 63.0309 16.6568C63.2352 16.271 63.3373 15.8426 63.3373 15.3716C63.3373 14.8326 63.2125 14.3503 62.9628 13.9247C62.7131 13.4935 62.3699 13.1928 61.933 13.0226C61.4961 12.8523 60.8435 12.7701 59.9754 12.7757ZM67.3546 6.92006H73.3124V7.23498H73.0145C72.5662 7.23498 72.257 7.28321 72.0868 7.37967C71.9222 7.47045 71.8031 7.59812 71.7293 7.76267C71.6612 7.92722 71.6272 8.33859 71.6272 8.99678V14.6482C71.6272 15.6809 71.7038 16.3646 71.857 16.6994C72.0158 17.0341 72.274 17.3122 72.6315 17.5335C72.9889 17.7548 73.44 17.8654 73.9847 17.8654C74.6089 17.8654 75.1394 17.7264 75.5763 17.4484C76.0189 17.1647 76.348 16.776 76.5636 16.2823C76.7849 15.7887 76.8956 14.9291 76.8956 13.7034V8.99678C76.8956 8.48044 76.8417 8.11163 76.7338 7.89034C76.626 7.66905 76.4899 7.51584 76.3253 7.43073C76.07 7.30023 75.7097 7.23498 75.2444 7.23498V6.92006H79.2361V7.23498H78.9978C78.6744 7.23498 78.4049 7.30023 78.1892 7.43073C77.9736 7.56124 77.8176 7.75699 77.7211 8.018C77.6474 8.19957 77.6105 8.52583 77.6105 8.99678V13.38C77.6105 14.7361 77.5197 15.7149 77.3381 16.3164C77.1622 16.9178 76.7282 17.4711 76.0359 17.976C75.3437 18.481 74.399 18.7335 73.2017 18.7335C72.2031 18.7335 71.4314 18.6002 70.8867 18.3335C70.1434 17.9704 69.6185 17.5051 69.3121 16.9377C69.0057 16.3703 68.8525 15.6071 68.8525 14.6482V8.99678C68.8525 8.33292 68.8156 7.92154 68.7419 7.76267C68.6681 7.59812 68.5404 7.46761 68.3589 7.37116C68.1773 7.2747 67.8425 7.2293 67.3546 7.23498V6.92006ZM87.7302 6.65622L87.8239 10.5033H87.4749C87.3104 9.53866 86.9047 8.76415 86.2578 8.17971C85.6166 7.58961 84.9216 7.29455 84.1726 7.29455C83.5938 7.29455 83.1342 7.45059 82.7938 7.76267C82.459 8.06907 82.2916 8.4237 82.2916 8.82656C82.2916 9.0819 82.3512 9.30886 82.4704 9.50745C82.6349 9.77414 82.8988 10.038 83.2619 10.299C83.5286 10.4862 84.1442 10.8182 85.1088 11.2948C86.4592 11.9587 87.3699 12.5857 87.8409 13.1758C88.3062 13.7659 88.5388 14.4411 88.5388 15.2014C88.5388 16.166 88.1615 16.9973 87.4068 17.6952C86.6578 18.3874 85.7046 18.7335 84.5471 18.7335C84.1839 18.7335 83.8407 18.6967 83.5172 18.6229C83.1938 18.5491 82.7881 18.4101 82.3001 18.2058C82.0278 18.0924 81.8037 18.0356 81.6278 18.0356C81.4802 18.0356 81.3242 18.0924 81.1596 18.2058C80.9951 18.3193 80.8618 18.4924 80.7596 18.725H80.4447V14.3673H80.7596C81.0093 15.5929 81.4887 16.5292 82.198 17.176C82.9129 17.8172 83.6818 18.1378 84.5045 18.1378C85.14 18.1378 85.645 17.9647 86.0195 17.6186C86.3997 17.2725 86.5898 16.8696 86.5898 16.41C86.5898 16.1376 86.516 15.8738 86.3685 15.6185C86.2266 15.3631 86.0082 15.122 85.7131 14.895C85.4181 14.6624 84.896 14.3616 84.1471 13.9928C83.0973 13.4765 82.3427 13.0367 81.8831 12.6736C81.4235 12.3105 81.0689 11.9048 80.8192 11.4565C80.5752 11.0083 80.4532 10.5146 80.4532 9.97557C80.4532 9.05636 80.7908 8.27334 81.466 7.62649C82.1413 6.97964 82.9924 6.65622 84.0194 6.65622C84.3939 6.65622 84.757 6.70161 85.1088 6.7924C85.3755 6.86049 85.6989 6.98815 86.0791 7.1754C86.4649 7.35697 86.7344 7.44776 86.8876 7.44776C87.0352 7.44776 87.1515 7.40236 87.2366 7.31158C87.3217 7.22079 87.4011 7.00234 87.4749 6.65622H87.7302ZM95.6286 18.1463V18.4612H89.5942V18.1463H89.9772C90.312 18.1463 90.5815 18.0867 90.7857 17.9675C90.9333 17.8881 91.0468 17.7519 91.1262 17.559C91.1886 17.4228 91.2198 17.0654 91.2198 16.4866V8.89465C91.2198 8.30454 91.1886 7.93573 91.1262 7.7882C91.0638 7.64067 90.9361 7.51301 90.7432 7.4052C90.5559 7.29172 90.3006 7.23498 89.9772 7.23498H89.5942V6.92006H95.6286V7.23498H95.2456C94.9108 7.23498 94.6413 7.29455 94.437 7.41371C94.2895 7.49315 94.1732 7.62933 94.0881 7.82225C94.0257 7.95842 93.9945 8.31589 93.9945 8.89465V16.4866C93.9945 17.0767 94.0257 17.4455 94.0881 17.593C94.1562 17.7406 94.2838 17.8711 94.4711 17.9846C94.664 18.0924 94.9222 18.1463 95.2456 18.1463H95.6286ZM100.378 6.92006L106.072 14.0779V9.11594C106.072 8.4237 105.972 7.95559 105.774 7.7116C105.502 7.3825 105.045 7.22363 104.404 7.23498V6.92006H108.217V7.23498C107.729 7.29739 107.4 7.37967 107.229 7.4818C107.065 7.57826 106.934 7.73997 106.838 7.96694C106.747 8.18823 106.702 8.57123 106.702 9.11594V18.725H106.412L98.6075 9.11594V16.4526C98.6075 17.1164 98.7579 17.5647 99.0586 17.7973C99.365 18.03 99.7139 18.1463 100.105 18.1463H100.378V18.4612H96.284V18.1463C96.9195 18.1406 97.362 18.0101 97.6117 17.7548C97.8614 17.4994 97.9862 17.0654 97.9862 16.4526V8.30738L97.7394 8.00098C97.4954 7.69458 97.2798 7.49315 97.0925 7.39669C96.9053 7.30023 96.6357 7.24633 96.284 7.23498V6.92006H100.378ZM113.383 7.58393V12.2821H113.613C114.345 12.2821 114.875 12.0523 115.204 11.5927C115.533 11.1331 115.743 10.455 115.834 9.55852H116.157V15.6014H115.834C115.766 14.9432 115.621 14.4042 115.4 13.9843C115.184 13.5644 114.932 13.2836 114.642 13.1417C114.353 12.9942 113.933 12.9204 113.383 12.9204V16.1717C113.383 16.8072 113.408 17.1959 113.459 17.3377C113.516 17.4796 113.618 17.5959 113.766 17.6867C113.913 17.7775 114.152 17.8228 114.481 17.8228H115.17C116.248 17.8228 117.111 17.5732 117.758 17.0739C118.41 16.5745 118.878 15.8142 119.162 14.7929H119.477L118.958 18.4612H108.983V18.1463H109.366C109.7 18.1463 109.97 18.0867 110.174 17.9675C110.322 17.8881 110.435 17.7519 110.515 17.559C110.577 17.4228 110.608 17.0654 110.608 16.4866V8.89465C110.608 8.37263 110.594 8.05205 110.566 7.93289C110.509 7.7343 110.404 7.5811 110.251 7.47329C110.035 7.31441 109.74 7.23498 109.366 7.23498H108.983V6.92006H118.643V10.333H118.319C118.155 9.49894 117.922 8.90032 117.621 8.53718C117.326 8.17404 116.906 7.90736 116.362 7.73713C116.044 7.635 115.448 7.58393 114.574 7.58393H113.383ZM128.448 6.65622L128.541 10.5033H128.192C128.028 9.53866 127.622 8.76415 126.975 8.17971C126.334 7.58961 125.639 7.29455 124.89 7.29455C124.311 7.29455 123.852 7.45059 123.511 7.76267C123.176 8.06907 123.009 8.4237 123.009 8.82656C123.009 9.0819 123.069 9.30886 123.188 9.50745C123.352 9.77414 123.616 10.038 123.979 10.299C124.246 10.4862 124.862 10.8182 125.826 11.2948C127.177 11.9587 128.087 12.5857 128.558 13.1758C129.024 13.7659 129.256 14.4411 129.256 15.2014C129.256 16.166 128.879 16.9973 128.124 17.6952C127.375 18.3874 126.422 18.7335 125.264 18.7335C124.901 18.7335 124.558 18.6967 124.235 18.6229C123.911 18.5491 123.505 18.4101 123.017 18.2058C122.745 18.0924 122.521 18.0356 122.345 18.0356C122.198 18.0356 122.042 18.0924 121.877 18.2058C121.712 18.3193 121.579 18.4924 121.477 18.725H121.162V14.3673H121.477C121.727 15.5929 122.206 16.5292 122.915 17.176C123.63 17.8172 124.399 18.1378 125.222 18.1378C125.857 18.1378 126.362 17.9647 126.737 17.6186C127.117 17.2725 127.307 16.8696 127.307 16.41C127.307 16.1376 127.233 15.8738 127.086 15.6185C126.944 15.3631 126.725 15.122 126.43 14.895C126.135 14.6624 125.613 14.3616 124.864 13.9928C123.815 13.4765 123.06 13.0367 122.6 12.6736C122.141 12.3105 121.786 11.9048 121.537 11.4565C121.293 11.0083 121.171 10.5146 121.171 9.97557C121.171 9.05636 121.508 8.27334 122.183 7.62649C122.859 6.97964 123.71 6.65622 124.737 6.65622C125.111 6.65622 125.474 6.70161 125.826 6.7924C126.093 6.86049 126.416 6.98815 126.796 7.1754C127.182 7.35697 127.452 7.44776 127.605 7.44776C127.753 7.44776 127.869 7.40236 127.954 7.31158C128.039 7.22079 128.118 7.00234 128.192 6.65622H128.448ZM138.15 6.65622L138.244 10.5033H137.895C137.73 9.53866 137.325 8.76415 136.678 8.17971C136.037 7.58961 135.342 7.29455 134.593 7.29455C134.014 7.29455 133.554 7.45059 133.214 7.76267C132.879 8.06907 132.712 8.4237 132.712 8.82656C132.712 9.0819 132.771 9.30886 132.89 9.50745C133.055 9.77414 133.319 10.038 133.682 10.299C133.949 10.4862 134.564 10.8182 135.529 11.2948C136.879 11.9587 137.79 12.5857 138.261 13.1758C138.726 13.7659 138.959 14.4411 138.959 15.2014C138.959 16.166 138.582 16.9973 137.827 17.6952C137.078 18.3874 136.125 18.7335 134.967 18.7335C134.604 18.7335 134.261 18.6967 133.937 18.6229C133.614 18.5491 133.208 18.4101 132.72 18.2058C132.448 18.0924 132.224 18.0356 132.048 18.0356C131.9 18.0356 131.744 18.0924 131.58 18.2058C131.415 18.3193 131.282 18.4924 131.18 18.725H130.865V14.3673H131.18C131.429 15.5929 131.909 16.5292 132.618 17.176C133.333 17.8172 134.102 18.1378 134.925 18.1378C135.56 18.1378 136.065 17.9647 136.44 17.6186C136.82 17.2725 137.01 16.8696 137.01 16.41C137.01 16.1376 136.936 15.8738 136.789 15.6185C136.647 15.3631 136.428 15.122 136.133 14.895C135.838 14.6624 135.316 14.3616 134.567 13.9928C133.517 13.4765 132.763 13.0367 132.303 12.6736C131.844 12.3105 131.489 11.9048 131.239 11.4565C130.995 11.0083 130.873 10.5146 130.873 9.97557C130.873 9.05636 131.211 8.27334 131.886 7.62649C132.561 6.97964 133.412 6.65622 134.439 6.65622C134.814 6.65622 135.177 6.70161 135.529 6.7924C135.796 6.86049 136.119 6.98815 136.499 7.1754C136.885 7.35697 137.154 7.44776 137.308 7.44776C137.455 7.44776 137.572 7.40236 137.657 7.31158C137.742 7.22079 137.821 7.00234 137.895 6.65622H138.15ZM152.211 6.65622L152.304 10.5033H151.955C151.791 9.53866 151.385 8.76415 150.738 8.17971C150.097 7.58961 149.402 7.29455 148.653 7.29455C148.074 7.29455 147.615 7.45059 147.274 7.76267C146.939 8.06907 146.772 8.4237 146.772 8.82656C146.772 9.0819 146.832 9.30886 146.951 9.50745C147.115 9.77414 147.379 10.038 147.742 10.299C148.009 10.4862 148.625 10.8182 149.589 11.2948C150.94 11.9587 151.85 12.5857 152.321 13.1758C152.787 13.7659 153.019 14.4411 153.019 15.2014C153.019 16.166 152.642 16.9973 151.887 17.6952C151.138 18.3874 150.185 18.7335 149.028 18.7335C148.664 18.7335 148.321 18.6967 147.998 18.6229C147.674 18.5491 147.269 18.4101 146.781 18.2058C146.508 18.0924 146.284 18.0356 146.108 18.0356C145.961 18.0356 145.805 18.0924 145.64 18.2058C145.476 18.3193 145.342 18.4924 145.24 18.725H144.925V14.3673H145.24C145.49 15.5929 145.969 16.5292 146.678 17.176C147.393 17.8172 148.162 18.1378 148.985 18.1378C149.62 18.1378 150.125 17.9647 150.5 17.6186C150.88 17.2725 151.07 16.8696 151.07 16.41C151.07 16.1376 150.996 15.8738 150.849 15.6185C150.707 15.3631 150.489 15.122 150.194 14.895C149.899 14.6624 149.376 14.3616 148.628 13.9928C147.578 13.4765 146.823 13.0367 146.364 12.6736C145.904 12.3105 145.549 11.9048 145.3 11.4565C145.056 11.0083 144.934 10.5146 144.934 9.97557C144.934 9.05636 145.271 8.27334 145.946 7.62649C146.622 6.97964 147.473 6.65622 148.5 6.65622C148.874 6.65622 149.237 6.70161 149.589 6.7924C149.856 6.86049 150.179 6.98815 150.56 7.1754C150.945 7.35697 151.215 7.44776 151.368 7.44776C151.516 7.44776 151.632 7.40236 151.717 7.31158C151.802 7.22079 151.882 7.00234 151.955 6.65622H152.211ZM158.475 7.58393V12.2821H158.705C159.437 12.2821 159.967 12.0523 160.296 11.5927C160.625 11.1331 160.835 10.455 160.926 9.55852H161.25V15.6014H160.926C160.858 14.9432 160.713 14.4042 160.492 13.9843C160.276 13.5644 160.024 13.2836 159.735 13.1417C159.445 12.9942 159.025 12.9204 158.475 12.9204V16.1717C158.475 16.8072 158.5 17.1959 158.552 17.3377C158.608 17.4796 158.71 17.5959 158.858 17.6867C159.005 17.7775 159.244 17.8228 159.573 17.8228H160.262C161.34 17.8228 162.203 17.5732 162.85 17.0739C163.502 16.5745 163.97 15.8142 164.254 14.7929H164.569L164.05 18.4612H154.075V18.1463H154.458C154.792 18.1463 155.062 18.0867 155.266 17.9675C155.414 17.8881 155.527 17.7519 155.607 17.559C155.669 17.4228 155.7 17.0654 155.7 16.4866V8.89465C155.7 8.37263 155.686 8.05205 155.658 7.93289C155.601 7.7343 155.496 7.5811 155.343 7.47329C155.127 7.31441 154.832 7.23498 154.458 7.23498H154.075V6.92006H163.735V10.333H163.411C163.247 9.49894 163.014 8.90032 162.713 8.53718C162.418 8.17404 161.999 7.90736 161.454 7.73713C161.136 7.635 160.54 7.58393 159.666 7.58393H158.475ZM169.982 13.2013V16.4355C169.982 17.0597 170.019 17.454 170.093 17.6186C170.172 17.7775 170.308 17.9051 170.501 18.0016C170.694 18.098 171.054 18.1463 171.582 18.1463V18.4612H165.675V18.1463C166.209 18.1463 166.569 18.098 166.756 18.0016C166.949 17.8994 167.083 17.7689 167.156 17.6101C167.236 17.4512 167.275 17.0597 167.275 16.4355V8.94572C167.275 8.32157 167.236 7.93005 167.156 7.77118C167.083 7.60663 166.949 7.47613 166.756 7.37967C166.563 7.28321 166.203 7.23498 165.675 7.23498V6.92006H171.037C172.433 6.92006 173.455 7.01652 174.101 7.20944C174.748 7.40236 175.276 7.75983 175.684 8.28185C176.093 8.79819 176.297 9.40532 176.297 10.1032C176.297 10.9543 175.991 11.6579 175.378 12.214C174.987 12.5658 174.439 12.8296 173.735 13.0055L176.51 16.9122C176.873 17.4171 177.131 17.7321 177.285 17.8569C177.517 18.0328 177.787 18.1292 178.093 18.1463V18.4612H174.459L170.739 13.2013H169.982ZM169.982 7.54138V12.597H170.467C171.256 12.597 171.846 12.5261 172.237 12.3842C172.629 12.2367 172.935 11.9757 173.157 11.6012C173.384 11.221 173.497 10.7274 173.497 10.1203C173.497 9.24077 173.29 8.59109 172.876 8.1712C172.467 7.75132 171.806 7.54138 170.893 7.54138H169.982ZM189.745 6.92006V7.23498C189.325 7.30307 188.95 7.52719 188.621 7.90736C188.383 8.19106 188.028 8.85777 187.558 9.90748L183.583 18.725H183.302L179.344 9.55001C178.868 8.44356 178.547 7.79388 178.382 7.60096C178.224 7.40804 177.92 7.28604 177.472 7.23498V6.92006H183.004V7.23498H182.817C182.317 7.23498 181.977 7.29739 181.795 7.42222C181.665 7.50733 181.6 7.63216 181.6 7.79671C181.6 7.89885 181.622 8.02084 181.668 8.16269C181.713 8.29887 181.866 8.67052 182.127 9.27765L184.587 15.0227L186.868 9.90748C187.14 9.289 187.308 8.87479 187.37 8.66485C187.433 8.45491 187.464 8.27617 187.464 8.12865C187.464 7.95842 187.418 7.80806 187.328 7.67756C187.237 7.54705 187.104 7.44776 186.928 7.37967C186.684 7.28321 186.36 7.23498 185.957 7.23498V6.92006H189.745ZM196.315 18.1463V18.4612H190.281V18.1463H190.664C190.999 18.1463 191.268 18.0867 191.473 17.9675C191.62 17.8881 191.734 17.7519 191.813 17.559C191.875 17.4228 191.907 17.0654 191.907 16.4866V8.89465C191.907 8.30454 191.875 7.93573 191.813 7.7882C191.751 7.64067 191.623 7.51301 191.43 7.4052C191.243 7.29172 190.987 7.23498 190.664 7.23498H190.281V6.92006H196.315V7.23498H195.932C195.598 7.23498 195.328 7.29455 195.124 7.41371C194.976 7.49315 194.86 7.62933 194.775 7.82225C194.713 7.95842 194.681 8.31589 194.681 8.89465V16.4866C194.681 17.0767 194.713 17.4455 194.775 17.593C194.843 17.7406 194.971 17.8711 195.158 17.9846C195.351 18.0924 195.609 18.1463 195.932 18.1463H196.315ZM208.359 6.65622V10.6565H208.027C207.777 9.61242 207.312 8.81238 206.631 8.25631C205.95 7.70025 205.178 7.42222 204.316 7.42222C203.595 7.42222 202.934 7.62933 202.333 8.04354C201.731 8.45775 201.292 8.99962 201.014 9.66917C200.656 10.526 200.477 11.4792 200.477 12.5289C200.477 13.5616 200.608 14.5035 200.869 15.3546C201.13 16.2001 201.538 16.8412 202.095 17.2781C202.651 17.7094 203.371 17.925 204.256 17.925C204.983 17.925 205.647 17.7661 206.248 17.4484C206.855 17.1306 207.493 16.5831 208.163 15.8057V16.8015C207.516 17.4767 206.841 17.9675 206.137 18.2739C205.439 18.5747 204.622 18.725 203.686 18.725C202.455 18.725 201.36 18.4782 200.401 17.9846C199.448 17.4909 198.71 16.7816 198.188 15.8568C197.672 14.9319 197.413 13.9474 197.413 12.9034C197.413 11.8026 197.7 10.7586 198.273 9.7713C198.852 8.78401 199.629 8.018 200.605 7.47329C201.587 6.92858 202.628 6.65622 203.729 6.65622C204.54 6.65622 205.397 6.83212 206.299 7.18391C206.821 7.38818 207.153 7.49031 207.295 7.49031C207.476 7.49031 207.632 7.42506 207.763 7.29455C207.899 7.15838 207.987 6.9456 208.027 6.65622H208.359ZM214.07 7.58393V12.2821H214.3C215.031 12.2821 215.562 12.0523 215.891 11.5927C216.22 11.1331 216.43 10.455 216.521 9.55852H216.844V15.6014H216.521C216.453 14.9432 216.308 14.4042 216.087 13.9843C215.871 13.5644 215.619 13.2836 215.329 13.1417C215.04 12.9942 214.62 12.9204 214.07 12.9204V16.1717C214.07 16.8072 214.095 17.1959 214.146 17.3377C214.203 17.4796 214.305 17.5959 214.453 17.6867C214.6 17.7775 214.839 17.8228 215.168 17.8228H215.857C216.935 17.8228 217.798 17.5732 218.444 17.0739C219.097 16.5745 219.565 15.8142 219.849 14.7929H220.164L219.645 18.4612H209.669V18.1463H210.052C210.387 18.1463 210.657 18.0867 210.861 17.9675C211.009 17.8881 211.122 17.7519 211.201 17.559C211.264 17.4228 211.295 17.0654 211.295 16.4866V8.89465C211.295 8.37263 211.281 8.05205 211.253 7.93289C211.196 7.7343 211.091 7.5811 210.938 7.47329C210.722 7.31441 210.427 7.23498 210.052 7.23498H209.669V6.92006H219.33V10.333H219.006C218.842 9.49894 218.609 8.90032 218.308 8.53718C218.013 8.17404 217.593 7.90736 217.049 7.73713C216.731 7.635 216.135 7.58393 215.261 7.58393H214.07ZM77.585 26.9201V30.0437H77.2786C77.097 29.323 76.8956 28.8067 76.6743 28.4946C76.453 28.1769 76.1494 27.9244 75.7636 27.7371C75.548 27.635 75.1706 27.5839 74.6316 27.5839H73.772V36.4866C73.772 37.0767 73.8032 37.4455 73.8656 37.593C73.9337 37.7406 74.0613 37.8711 74.2486 37.9846C74.4415 38.0924 74.7025 38.1463 75.0316 38.1463H75.4146V38.4612H69.3717V38.1463H69.7547C70.0895 38.1463 70.359 38.0867 70.5633 37.9675C70.7108 37.8881 70.8271 37.7519 70.9122 37.559C70.9746 37.4228 71.0058 37.0654 71.0058 36.4866V27.5839H70.1717C69.3944 27.5839 68.8298 27.7485 68.478 28.0776C67.9844 28.5372 67.6723 29.1925 67.5418 30.0437H67.2184V26.9201H77.585ZM78.6233 26.9201H84.5811V27.235H84.2832C83.835 27.235 83.5257 27.2832 83.3555 27.3797C83.191 27.4705 83.0718 27.5981 82.998 27.7627C82.93 27.9272 82.8959 28.3386 82.8959 28.9968V34.6482C82.8959 35.6809 82.9725 36.3646 83.1257 36.6994C83.2846 37.0341 83.5428 37.3122 83.9002 37.5335C84.2577 37.7548 84.7088 37.8654 85.2535 37.8654C85.8777 37.8654 86.4082 37.7264 86.8451 37.4484C87.2877 37.1647 87.6168 36.776 87.8324 36.2823C88.0537 35.7887 88.1643 34.9291 88.1643 33.7034V28.9968C88.1643 28.4804 88.1104 28.1116 88.0026 27.8903C87.8948 27.669 87.7586 27.5158 87.5941 27.4307C87.3387 27.3002 86.9784 27.235 86.5132 27.235V26.9201H90.5049V27.235H90.2666C89.9431 27.235 89.6736 27.3002 89.458 27.4307C89.2424 27.5612 89.0864 27.757 88.9899 28.018C88.9161 28.1996 88.8793 28.5258 88.8793 28.9968V33.38C88.8793 34.7361 88.7885 35.7149 88.6069 36.3164C88.431 36.9178 87.9969 37.4711 87.3047 37.976C86.6124 38.481 85.6677 38.7335 84.4705 38.7335C83.4718 38.7335 82.7002 38.6002 82.1554 38.3335C81.4121 37.9704 80.8873 37.5051 80.5809 36.9377C80.2745 36.3703 80.1213 35.6071 80.1213 34.6482V28.9968C80.1213 28.3329 80.0844 27.9215 80.0106 27.7627C79.9369 27.5981 79.8092 27.4676 79.6276 27.3712C79.4461 27.2747 79.1113 27.2293 78.6233 27.235V26.9201ZM95.4413 33.2013V36.4355C95.4413 37.0597 95.4782 37.454 95.552 37.6186C95.6314 37.7775 95.7676 37.9051 95.9605 38.0016C96.1534 38.098 96.5138 38.1463 97.0414 38.1463V38.4612H91.1347V38.1463C91.6681 38.1463 92.0284 38.098 92.2156 38.0016C92.4085 37.8994 92.5419 37.7689 92.6156 37.6101C92.6951 37.4512 92.7348 37.0597 92.7348 36.4355V28.9457C92.7348 28.3216 92.6951 27.9301 92.6156 27.7712C92.5419 27.6066 92.4085 27.4761 92.2156 27.3797C92.0227 27.2832 91.6624 27.235 91.1347 27.235V26.9201H96.4967C97.8926 26.9201 98.9139 27.0165 99.5607 27.2094C100.208 27.4024 100.735 27.7598 101.144 28.2818C101.552 28.7982 101.757 29.4053 101.757 30.1032C101.757 30.9543 101.45 31.6579 100.837 32.214C100.446 32.5658 99.8984 32.8296 99.1948 33.0055L101.969 36.9122C102.333 37.4171 102.591 37.7321 102.744 37.8569C102.977 38.0328 103.246 38.1292 103.552 38.1463V38.4612H99.9182L96.1988 33.2013H95.4413ZM95.4413 27.5414V32.597H95.9265C96.7152 32.597 97.3053 32.5261 97.6968 32.3842C98.0883 32.2367 98.3947 31.9757 98.616 31.6012C98.843 31.221 98.9565 30.7274 98.9565 30.1203C98.9565 29.2408 98.7493 28.5911 98.3351 28.1712C97.9266 27.7513 97.2656 27.5414 96.352 27.5414H95.4413ZM110.668 31.3374L114.728 36.4185C115.301 37.1334 115.794 37.6186 116.209 37.8739C116.509 38.0555 116.827 38.1463 117.162 38.1463V38.4612H111.153V38.1463C111.533 38.1122 111.777 38.0526 111.885 37.9675C111.998 37.8824 112.055 37.7775 112.055 37.6526C112.055 37.4143 111.794 36.9661 111.272 36.3079L108.625 32.98L108.2 33.3375V36.4866C108.2 37.088 108.234 37.4625 108.302 37.6101C108.37 37.7576 108.5 37.8853 108.693 37.9931C108.886 38.0952 109.195 38.1463 109.621 38.1463V38.4612H103.799V38.1463H104.182C104.517 38.1463 104.787 38.0867 104.991 37.9675C105.138 37.8881 105.252 37.7519 105.331 37.559C105.394 37.4228 105.425 37.0654 105.425 36.4866V28.8947C105.425 28.3045 105.394 27.9357 105.331 27.7882C105.269 27.6407 105.141 27.513 104.948 27.4052C104.761 27.2917 104.506 27.235 104.182 27.235H103.799V26.9201H109.544V27.235C109.153 27.235 108.855 27.2917 108.651 27.4052C108.503 27.4846 108.387 27.618 108.302 27.8052C108.234 27.9471 108.2 28.3102 108.2 28.8947V32.4864L112.481 29.0223C113.076 28.54 113.374 28.1542 113.374 27.8648C113.374 27.6492 113.252 27.479 113.008 27.3541C112.884 27.2917 112.574 27.252 112.081 27.235V26.9201H116.583V27.235C116.18 27.2633 115.862 27.3371 115.63 27.4563C115.403 27.5697 114.875 27.9613 114.047 28.6308L110.668 31.3374ZM125.281 34.529L128.414 26.9201H133.112V27.235H132.737C132.397 27.235 132.124 27.2946 131.92 27.4137C131.778 27.4931 131.665 27.6265 131.58 27.8137C131.517 27.9499 131.486 28.3045 131.486 28.8776V36.4866C131.486 37.0767 131.517 37.4455 131.58 37.593C131.642 37.7406 131.77 37.8711 131.963 37.9846C132.156 38.0924 132.414 38.1463 132.737 38.1463H133.112V38.4612H127.086V38.1463H127.46C127.801 38.1463 128.073 38.0867 128.277 37.9675C128.419 37.8881 128.533 37.7519 128.618 37.559C128.68 37.4228 128.711 37.0654 128.711 36.4866V27.9329L124.286 38.4612H124.081L119.587 28.0095V36.1376C119.587 36.705 119.602 37.054 119.63 37.1845C119.704 37.4682 119.863 37.7009 120.107 37.8824C120.356 38.0583 120.745 38.1463 121.273 38.1463V38.4612H117.324V38.1463H117.443C117.698 38.1519 117.936 38.1122 118.158 38.0271C118.379 37.9363 118.546 37.8172 118.66 37.6696C118.773 37.5221 118.861 37.315 118.924 37.0483C118.935 36.9859 118.941 36.6965 118.941 36.1802V28.8776C118.941 28.2932 118.909 27.9301 118.847 27.7882C118.785 27.6407 118.657 27.513 118.464 27.4052C118.271 27.2917 118.013 27.235 117.689 27.235H117.324V26.9201H122.039L125.281 34.529ZM138.184 27.5839V32.2821H138.414C139.146 32.2821 139.677 32.0523 140.006 31.5927C140.335 31.1331 140.545 30.455 140.636 29.5585H140.959V35.6014H140.636C140.567 34.9432 140.423 34.4042 140.201 33.9843C139.986 33.5644 139.733 33.2836 139.444 33.1417C139.155 32.9942 138.735 32.9204 138.184 32.9204V36.1717C138.184 36.8072 138.21 37.1959 138.261 37.3377C138.318 37.4796 138.42 37.5959 138.567 37.6867C138.715 37.7775 138.953 37.8228 139.282 37.8228H139.972C141.05 37.8228 141.912 37.5732 142.559 37.0739C143.212 36.5745 143.68 35.8142 143.963 34.7929H144.278L143.759 38.4612H133.784V38.1463H134.167C134.502 38.1463 134.771 38.0867 134.976 37.9675C135.123 37.8881 135.237 37.7519 135.316 37.559C135.378 37.4228 135.41 37.0654 135.41 36.4866V28.8947C135.41 28.3726 135.396 28.052 135.367 27.9329C135.31 27.7343 135.205 27.5811 135.052 27.4733C134.837 27.3144 134.542 27.235 134.167 27.235H133.784V26.9201H143.444V30.333H143.121C142.956 29.4989 142.724 28.9003 142.423 28.5372C142.128 28.174 141.708 27.9074 141.163 27.7371C140.845 27.635 140.25 27.5839 139.376 27.5839H138.184ZM149.402 26.9201L155.096 34.0779V29.1159C155.096 28.4237 154.997 27.9556 154.798 27.7116C154.526 27.3825 154.069 27.2236 153.428 27.235V26.9201H157.241V27.235C156.753 27.2974 156.424 27.3797 156.254 27.4818C156.089 27.5783 155.958 27.74 155.862 27.9669C155.771 28.1882 155.726 28.5712 155.726 29.1159V38.725H155.436L147.632 29.1159V36.4526C147.632 37.1164 147.782 37.5647 148.083 37.7973C148.389 38.03 148.738 38.1463 149.13 38.1463H149.402V38.4612H145.308V38.1463C145.944 38.1406 146.386 38.0101 146.636 37.7548C146.886 37.4994 147.01 37.0654 147.01 36.4526V28.3074L146.764 28.001C146.52 27.6946 146.304 27.4931 146.117 27.3967C145.929 27.3002 145.66 27.2463 145.308 27.235V26.9201H149.402ZM164.041 38.1463V38.4612H158.007V38.1463H158.39C158.725 38.1463 158.994 38.0867 159.198 37.9675C159.346 37.8881 159.459 37.7519 159.539 37.559C159.601 37.4228 159.632 37.0654 159.632 36.4866V28.8947C159.632 28.3045 159.601 27.9357 159.539 27.7882C159.476 27.6407 159.349 27.513 159.156 27.4052C158.969 27.2917 158.713 27.235 158.39 27.235H158.007V26.9201H164.041V27.235H163.658C163.323 27.235 163.054 27.2946 162.85 27.4137C162.702 27.4931 162.586 27.6293 162.501 27.8222C162.438 27.9584 162.407 28.3159 162.407 28.8947V36.4866C162.407 37.0767 162.438 37.4455 162.501 37.593C162.569 37.7406 162.696 37.8711 162.884 37.9846C163.077 38.0924 163.335 38.1463 163.658 38.1463H164.041ZM172.637 26.6562L172.731 30.5033H172.382C172.218 29.5387 171.812 28.7641 171.165 28.1797C170.524 27.5896 169.829 27.2946 169.08 27.2946C168.501 27.2946 168.041 27.4506 167.701 27.7627C167.366 28.0691 167.199 28.4237 167.199 28.8266C167.199 29.0819 167.258 29.3089 167.378 29.5075C167.542 29.7741 167.806 30.038 168.169 30.299C168.436 30.4862 169.051 30.8182 170.016 31.2948C171.366 31.9587 172.277 32.5857 172.748 33.1758C173.213 33.7659 173.446 34.4411 173.446 35.2014C173.446 36.166 173.069 36.9973 172.314 37.6952C171.565 38.3874 170.612 38.7335 169.454 38.7335C169.091 38.7335 168.748 38.6967 168.424 38.6229C168.101 38.5491 167.695 38.4101 167.207 38.2058C166.935 38.0924 166.711 38.0356 166.535 38.0356C166.387 38.0356 166.231 38.0924 166.067 38.2058C165.902 38.3193 165.769 38.4924 165.667 38.725H165.352V34.3673H165.667C165.916 35.5929 166.396 36.5292 167.105 37.176C167.82 37.8172 168.589 38.1378 169.412 38.1378C170.047 38.1378 170.552 37.9647 170.927 37.6186C171.307 37.2725 171.497 36.8696 171.497 36.41C171.497 36.1376 171.423 35.8738 171.276 35.6185C171.134 35.3631 170.915 35.122 170.62 34.895C170.325 34.6624 169.803 34.3616 169.054 33.9928C168.005 33.4765 167.25 33.0367 166.79 32.6736C166.331 32.3105 165.976 31.9048 165.726 31.4565C165.482 31.0083 165.36 30.5146 165.36 29.9756C165.36 29.0564 165.698 28.2733 166.373 27.6265C167.048 26.9796 167.9 26.6562 168.927 26.6562C169.301 26.6562 169.664 26.7016 170.016 26.7924C170.283 26.8605 170.606 26.9882 170.986 27.1754C171.372 27.357 171.642 27.4478 171.795 27.4478C171.942 27.4478 172.059 27.4024 172.144 27.3116C172.229 27.2208 172.308 27.0023 172.382 26.6562H172.637ZM185.149 26.9201V30.0437H184.842C184.661 29.323 184.459 28.8067 184.238 28.4946C184.017 28.1769 183.713 27.9244 183.327 27.7371C183.112 27.635 182.735 27.5839 182.195 27.5839H181.336V36.4866C181.336 37.0767 181.367 37.4455 181.429 37.593C181.498 37.7406 181.625 37.8711 181.812 37.9846C182.005 38.0924 182.266 38.1463 182.596 38.1463H182.979V38.4612H176.936V38.1463H177.319C177.653 38.1463 177.923 38.0867 178.127 37.9675C178.275 37.8881 178.391 37.7519 178.476 37.559C178.539 37.4228 178.57 37.0654 178.57 36.4866V27.5839H177.736C176.958 27.5839 176.394 27.7485 176.042 28.0776C175.548 28.5372 175.236 29.1925 175.106 30.0437H174.782V26.9201H185.149ZM191.736 35.1759H187.66L187.175 36.2993C187.016 36.6738 186.936 36.9831 186.936 37.2271C186.936 37.5505 187.067 37.7888 187.328 37.942C187.481 38.0328 187.858 38.1009 188.46 38.1463V38.4612H184.621V38.1463C185.035 38.0839 185.376 37.9136 185.643 37.6356C185.909 37.3519 186.238 36.7703 186.63 35.8908L190.758 26.6818H190.919L195.081 36.1461C195.479 37.0427 195.805 37.6072 196.06 37.8399C196.253 38.0158 196.525 38.1179 196.877 38.1463V38.4612H191.294V38.1463H191.524C191.972 38.1463 192.287 38.0839 192.468 37.959C192.593 37.8682 192.656 37.7377 192.656 37.5675C192.656 37.4654 192.639 37.3604 192.605 37.2526C192.593 37.2015 192.508 36.9888 192.349 36.6143L191.736 35.1759ZM191.447 34.5461L189.728 30.5713L187.958 34.5461H191.447ZM201.422 26.9201L207.116 34.0779V29.1159C207.116 28.4237 207.017 27.9556 206.818 27.7116C206.546 27.3825 206.089 27.2236 205.448 27.235V26.9201H209.261V27.235C208.773 27.2974 208.444 27.3797 208.274 27.4818C208.109 27.5783 207.979 27.74 207.882 27.9669C207.791 28.1882 207.746 28.5712 207.746 29.1159V38.725H207.457L199.652 29.1159V36.4526C199.652 37.1164 199.802 37.5647 200.103 37.7973C200.409 38.03 200.758 38.1463 201.15 38.1463H201.422V38.4612H197.328V38.1463C197.964 38.1406 198.406 38.0101 198.656 37.7548C198.906 37.4994 199.031 37.0654 199.031 36.4526V28.3074L198.784 28.001C198.54 27.6946 198.324 27.4931 198.137 27.3967C197.95 27.3002 197.68 27.2463 197.328 27.235V26.9201H201.422Z" fill="white"/>
<defs>
<clipPath id="clip0_99_63">
<rect width="44.8" height="39.3824" fill="white"/>
</clipPath>
</defs>
</svg>
