<svg width="145" height="30" viewBox="0 0 165 30" fill="none" xmlns="http://www.w3.org/2000/svg">
<g clip-path="url(#clip0_99_68)">
<rect width="33" height="28.1303" fill="white"/>
<path d="M12.8522 11.0719C14.9265 11.5556 16.3828 12.1413 17.2211 12.8291C18.4248 13.8072 19.0267 15.0754 19.0267 16.6337C19.0267 18.2781 18.3657 19.6377 17.0437 20.7124C15.4209 22.0129 13.0618 22.6631 9.96652 22.6631H-1.14102V22.0666C-0.130751 22.0666 0.551715 21.9752 0.906383 21.7925C1.2718 21.5991 1.52436 21.3519 1.66408 21.051C1.81455 20.75 1.88978 20.0085 1.88978 18.8262V4.63954C1.88978 3.45731 1.81455 2.71574 1.66408 2.41481C1.52436 2.10313 1.2718 1.85594 0.906383 1.67323C0.540968 1.49052 -0.141498 1.39917 -1.14102 1.39917V0.802682H9.33779C11.842 0.802682 13.6153 1.02838 14.6578 1.47977C15.7003 1.92042 16.5225 2.58677 17.1244 3.47881C17.7262 4.3601 18.0271 5.30051 18.0271 6.30003C18.0271 7.35328 17.6456 8.29369 16.8825 9.12124C16.1195 9.93805 14.776 10.5883 12.8522 11.0719ZM6.98409 10.6366C8.51024 10.6366 9.63335 10.4647 10.3534 10.1208C11.0843 9.77684 11.6431 9.2932 12.03 8.66985C12.4169 8.04649 12.6104 7.25118 12.6104 6.2839C12.6104 5.31663 12.4169 4.52669 12.03 3.91408C11.6539 3.29073 11.1111 2.81784 10.4018 2.49541C9.69246 2.17299 8.55323 2.01715 6.98409 2.0279V10.6366ZM6.98409 11.8941V18.9068L6.96797 19.7129C6.96797 20.2933 7.11306 20.7339 7.40324 21.0348C7.70417 21.325 8.14482 21.4701 8.72519 21.4701C9.58498 21.4701 10.3749 21.282 11.095 20.9059C11.8258 20.519 12.3847 19.9655 12.7716 19.2454C13.1585 18.5146 13.352 17.7031 13.352 16.8111C13.352 15.7901 13.1155 14.8765 12.6426 14.0705C12.1698 13.2537 11.5195 12.684 10.692 12.3616C9.86442 12.0392 8.62846 11.8833 6.98409 11.8941Z" fill="#091242"/>
<path d="M33.8509 7.63984L34.0283 14.9266H33.3673C33.0556 13.0996 32.2872 11.6325 31.0619 10.5255C29.8475 9.4078 28.5309 8.84893 27.1122 8.84893C26.016 8.84893 25.1454 9.14449 24.5006 9.7356C23.8665 10.316 23.5494 10.9877 23.5494 11.7508C23.5494 12.2344 23.6623 12.6643 23.888 13.0405C24.1997 13.5456 24.6994 14.0453 25.3873 14.5397C25.8924 14.8944 27.0585 15.5231 28.8856 16.4259C31.4435 17.6834 33.1685 18.871 34.0605 19.9887C34.9418 21.1064 35.3824 22.3854 35.3824 23.8256C35.3824 25.6526 34.6677 27.2271 33.2383 28.5491C31.8196 29.8603 30.0141 30.5159 27.8216 30.5159C27.1337 30.5159 26.4835 30.446 25.8709 30.3063C25.2583 30.1666 24.4899 29.9033 23.5656 29.5164C23.0497 29.3014 22.6252 29.1939 22.292 29.1939C22.0126 29.1939 21.717 29.3014 21.4053 29.5164C21.0936 29.7313 20.8411 30.0591 20.6476 30.4998H20.0511V22.2457H20.6476C21.1205 24.5671 22.0287 26.3405 23.3721 27.5657C24.7263 28.7802 26.1826 29.3874 27.741 29.3874C28.9447 29.3874 29.9012 29.0596 30.6106 28.404C31.3306 27.7484 31.6907 26.9853 31.6907 26.1148C31.6907 25.5989 31.551 25.0991 31.2715 24.6155C31.0028 24.1319 30.5891 23.6751 30.0302 23.2452C29.4713 22.8046 28.4825 22.2349 27.0639 21.5363C25.0756 20.5583 23.6462 19.7254 22.7756 19.0376C21.9051 18.3497 21.2334 17.5813 20.7605 16.7322C20.2983 15.8832 20.0673 14.9481 20.0673 13.9271C20.0673 12.186 20.7067 10.7029 21.9857 9.47766C23.2646 8.25244 24.8768 7.63984 26.8221 7.63984C27.5314 7.63984 28.2192 7.72582 28.8856 7.89778C29.3907 8.02675 30.0033 8.26857 30.7234 8.62323C31.4542 8.96715 31.9647 9.13911 32.2549 9.13911C32.5344 9.13911 32.7547 9.05313 32.9159 8.88117C33.0771 8.70921 33.2276 8.29543 33.3673 7.63984H33.8509Z" fill="#091242"/>
</g>
<path d="M46.4604 9.25013C47.2671 9.43821 47.8334 9.666 48.1594 9.9335C48.6275 10.3138 48.8616 10.807 48.8616 11.4131C48.8616 12.0525 48.6045 12.5813 48.0904 12.9992C47.4593 13.5049 46.5419 13.7578 45.3382 13.7578H41.0186V13.5258C41.4115 13.5258 41.6769 13.4903 41.8148 13.4193C41.9569 13.344 42.0551 13.2479 42.1095 13.1309C42.168 13.0138 42.1972 12.7255 42.1972 12.2657V6.74865C42.1972 6.2889 42.168 6.00051 42.1095 5.88348C42.0551 5.76227 41.9569 5.66614 41.8148 5.59509C41.6727 5.52404 41.4073 5.48851 41.0186 5.48851V5.25654H45.0937C46.0675 5.25654 46.7572 5.34431 47.1626 5.51986C47.568 5.69122 47.8877 5.95035 48.1218 6.29726C48.3558 6.63998 48.4729 7.0057 48.4729 7.3944C48.4729 7.804 48.3245 8.16971 48.0277 8.49154C47.731 8.80919 47.2085 9.06205 46.4604 9.25013ZM44.1784 9.08086C44.7719 9.08086 45.2086 9.01399 45.4886 8.88024C45.7729 8.74649 45.9902 8.55841 46.1407 8.316C46.2911 8.07358 46.3664 7.76429 46.3664 7.38813C46.3664 7.01197 46.2911 6.70477 46.1407 6.46653C45.9944 6.22412 45.7833 6.04021 45.5075 5.91483C45.2316 5.78944 44.7886 5.72884 44.1784 5.73302V9.08086ZM44.1784 9.56987V12.297L44.1721 12.6105C44.1721 12.8362 44.2285 13.0076 44.3414 13.1246C44.4584 13.2375 44.6297 13.2939 44.8554 13.2939C45.1898 13.2939 45.497 13.2207 45.777 13.0745C46.0613 12.924 46.2786 12.7087 46.4291 12.4287C46.5795 12.1445 46.6548 11.8289 46.6548 11.482C46.6548 11.085 46.5628 10.7297 46.3789 10.4162C46.195 10.0986 45.9421 9.87707 45.6203 9.75168C45.2985 9.6263 44.8178 9.56569 44.1784 9.56987ZM49.6139 5.25654H54.0025V5.48851H53.783C53.4528 5.48851 53.2251 5.52404 53.0997 5.59509C52.9785 5.66196 52.8907 5.756 52.8364 5.87721C52.7862 5.99842 52.7611 6.30144 52.7611 6.78627V10.9491C52.7611 11.7098 52.8175 12.2135 52.9304 12.4601C53.0474 12.7066 53.2376 12.9114 53.5009 13.0745C53.7642 13.2375 54.0965 13.319 54.4977 13.319C54.9575 13.319 55.3483 13.2166 55.6701 13.0118C55.9961 12.8028 56.2385 12.5165 56.3974 12.1529C56.5604 11.7892 56.6419 11.156 56.6419 10.2532V6.78627C56.6419 6.40593 56.6022 6.13426 56.5227 5.97125C56.4433 5.80825 56.343 5.6954 56.2218 5.63271C56.0337 5.53658 55.7683 5.48851 55.4256 5.48851V5.25654H58.3659V5.48851H58.1904C57.9522 5.48851 57.7536 5.53658 57.5948 5.63271C57.436 5.72884 57.321 5.87303 57.25 6.06529C57.1957 6.19904 57.1685 6.43936 57.1685 6.78627V10.015C57.1685 11.0139 57.1016 11.7349 56.9679 12.1779C56.8383 12.621 56.5186 13.0285 56.0087 13.4005C55.4987 13.7724 54.8028 13.9584 53.921 13.9584C53.1853 13.9584 52.6169 13.8602 52.2157 13.6638C51.6682 13.3963 51.2816 13.0536 51.0559 12.6356C50.8302 12.2176 50.7173 11.6555 50.7173 10.9491V6.78627C50.7173 6.29726 50.6901 5.99424 50.6358 5.87721C50.5815 5.756 50.4874 5.65987 50.3537 5.58882C50.2199 5.51777 49.9733 5.48433 49.6139 5.48851V5.25654ZM64.6228 5.06219L64.6917 7.89595H64.4347C64.3135 7.18542 64.0146 6.61491 63.5382 6.18441C63.0659 5.74973 62.5539 5.5324 62.0022 5.5324C61.5759 5.5324 61.2373 5.64733 60.9865 5.87721C60.7399 6.10291 60.6166 6.36413 60.6166 6.66088C60.6166 6.84896 60.6605 7.01615 60.7483 7.16243C60.8695 7.35887 61.0639 7.55322 61.3314 7.74548C61.5278 7.88341 61.9813 8.12792 62.6918 8.479C63.6865 8.96801 64.3574 9.42986 64.7043 9.86453C65.047 10.2992 65.2184 10.7966 65.2184 11.3566C65.2184 12.0672 64.9404 12.6795 64.3845 13.1936C63.8328 13.7035 63.1307 13.9584 62.278 13.9584C62.0105 13.9584 61.7577 13.9313 61.5194 13.8769C61.2812 13.8226 60.9824 13.7202 60.6229 13.5697C60.4223 13.4861 60.2572 13.4443 60.1276 13.4443C60.019 13.4443 59.904 13.4861 59.7828 13.5697C59.6616 13.6533 59.5634 13.7808 59.4882 13.9522H59.2562V10.7422H59.4882C59.6721 11.645 60.0252 12.3347 60.5477 12.8111C61.0743 13.2834 61.6406 13.5196 62.2467 13.5196C62.7148 13.5196 63.0868 13.3921 63.3626 13.1371C63.6427 12.8822 63.7827 12.5854 63.7827 12.2469C63.7827 12.0463 63.7283 11.8519 63.6197 11.6638C63.5152 11.4758 63.3543 11.2981 63.1369 11.1309C62.9196 10.9596 62.5351 10.7381 61.9834 10.4664C61.2101 10.086 60.6543 9.76213 60.3157 9.49464C59.9772 9.22715 59.7159 8.92831 59.532 8.59812C59.3523 8.26793 59.2625 7.90431 59.2625 7.50725C59.2625 6.83016 59.5111 6.25337 60.0085 5.7769C60.5059 5.30043 61.1328 5.06219 61.8893 5.06219C62.1652 5.06219 62.4327 5.09563 62.6918 5.1625C62.8882 5.21266 63.1265 5.3067 63.4065 5.44462C63.6907 5.57837 63.8893 5.64524 64.0021 5.64524C64.1108 5.64524 64.1965 5.61181 64.2592 5.54493C64.3218 5.47806 64.3804 5.31715 64.4347 5.06219H64.6228ZM70.4408 13.5258V13.7578H65.9958V13.5258H66.2779C66.5245 13.5258 66.723 13.482 66.8735 13.3942C66.9821 13.3357 67.0657 13.2354 67.1243 13.0933C67.1702 12.9929 67.1932 12.7296 67.1932 12.3033V6.71104C67.1932 6.27636 67.1702 6.00469 67.1243 5.89602C67.0783 5.78735 66.9842 5.69331 66.8421 5.6139C66.7042 5.53031 66.5161 5.48851 66.2779 5.48851H65.9958V5.25654H70.4408V5.48851H70.1586C69.912 5.48851 69.7135 5.5324 69.563 5.62017C69.4544 5.67868 69.3687 5.77899 69.306 5.9211C69.26 6.02141 69.237 6.28472 69.237 6.71104V12.3033C69.237 12.738 69.26 13.0097 69.306 13.1183C69.3562 13.227 69.4502 13.3231 69.5881 13.4067C69.7302 13.4861 69.9204 13.5258 70.1586 13.5258H70.4408ZM73.9391 5.25654L78.1333 10.5291V6.87404C78.1333 6.36413 78.0601 6.01932 77.9138 5.83959C77.7132 5.59718 77.3768 5.48015 76.9045 5.48851V5.25654H79.7132V5.48851C79.3537 5.53449 79.1113 5.59509 78.9859 5.67032C78.8647 5.74137 78.7686 5.86049 78.6975 6.02768C78.6306 6.19068 78.5972 6.4728 78.5972 6.87404V13.9522H78.384L72.635 6.87404V12.2782C72.635 12.7673 72.7458 13.0974 72.9673 13.2688C73.193 13.4402 73.4501 13.5258 73.7384 13.5258H73.9391V13.7578H70.9235V13.5258C71.3916 13.5217 71.7176 13.4255 71.9015 13.2375C72.0854 13.0494 72.1774 12.7296 72.1774 12.2782V6.27845L71.9956 6.05275C71.8158 5.82706 71.657 5.67868 71.5191 5.60763C71.3812 5.53658 71.1826 5.49687 70.9235 5.48851V5.25654H73.9391ZM83.5187 5.74555V9.20625H83.6879C84.2271 9.20625 84.6179 9.03697 84.8603 8.69843C85.1027 8.35988 85.2574 7.86042 85.3242 7.20005H85.5625V11.6513H85.3242C85.2741 11.1665 85.1675 10.7694 85.0045 10.4601C84.8457 10.1508 84.6597 9.94394 84.4465 9.83945C84.2334 9.73079 83.9241 9.67645 83.5187 9.67645V12.0714C83.5187 12.5395 83.5375 12.8258 83.5751 12.9303C83.6169 13.0347 83.6921 13.1204 83.8008 13.1873C83.9095 13.2542 84.085 13.2876 84.3274 13.2876H84.8352C85.6294 13.2876 86.2647 13.1037 86.7411 12.7359C87.2218 12.3681 87.5666 11.808 87.7756 11.0557H88.0075L87.6251 13.7578H80.2774V13.5258H80.5595C80.8061 13.5258 81.0046 13.482 81.1551 13.3942C81.2638 13.3357 81.3474 13.2354 81.4059 13.0933C81.4519 12.9929 81.4748 12.7296 81.4748 12.3033V6.71104C81.4748 6.32652 81.4644 6.09037 81.4435 6.0026C81.4017 5.85631 81.3244 5.74346 81.2115 5.66405C81.0527 5.54702 80.8354 5.48851 80.5595 5.48851H80.2774V5.25654H87.3931V7.77056H87.1549C87.0337 7.15616 86.8623 6.71522 86.6408 6.44772C86.4235 6.18023 86.1142 5.98379 85.7129 5.8584C85.4789 5.78317 85.04 5.74555 84.3964 5.74555H83.5187ZM94.6155 5.06219L94.6844 7.89595H94.4274C94.3062 7.18542 94.0073 6.61491 93.5309 6.18441C93.0586 5.74973 92.5466 5.5324 91.9949 5.5324C91.5685 5.5324 91.23 5.64733 90.9792 5.87721C90.7326 6.10291 90.6093 6.36413 90.6093 6.66088C90.6093 6.84896 90.6532 7.01615 90.741 7.16243C90.8622 7.35887 91.0565 7.55322 91.324 7.74548C91.5205 7.88341 91.974 8.12792 92.6845 8.479C93.6792 8.96801 94.35 9.42986 94.697 9.86453C95.0397 10.2992 95.211 10.7966 95.211 11.3566C95.211 12.0672 94.9331 12.6795 94.3772 13.1936C93.8255 13.7035 93.1233 13.9584 92.2707 13.9584C92.0032 13.9584 91.7503 13.9313 91.5121 13.8769C91.2739 13.8226 90.975 13.7202 90.6156 13.5697C90.415 13.4861 90.2499 13.4443 90.1203 13.4443C90.0116 13.4443 89.8967 13.4861 89.7755 13.5697C89.6543 13.6533 89.5561 13.7808 89.4808 13.9522H89.2489V10.7422H89.4808C89.6647 11.645 90.0179 12.3347 90.5404 12.8111C91.067 13.2834 91.6333 13.5196 92.2394 13.5196C92.7075 13.5196 93.0795 13.3921 93.3553 13.1371C93.6353 12.8822 93.7754 12.5854 93.7754 12.2469C93.7754 12.0463 93.721 11.8519 93.6124 11.6638C93.5079 11.4758 93.3469 11.2981 93.1296 11.1309C92.9123 10.9596 92.5278 10.7381 91.976 10.4664C91.2028 10.086 90.6469 9.76213 90.3084 9.49464C89.9698 9.22715 89.7086 8.92831 89.5247 8.59812C89.345 8.26793 89.2551 7.90431 89.2551 7.50725C89.2551 6.83016 89.5038 6.25337 90.0012 5.7769C90.4986 5.30043 91.1255 5.06219 91.882 5.06219C92.1579 5.06219 92.4254 5.09563 92.6845 5.1625C92.8809 5.21266 93.1192 5.3067 93.3992 5.44462C93.6834 5.57837 93.8819 5.64524 93.9948 5.64524C94.1035 5.64524 94.1891 5.61181 94.2518 5.54493C94.3145 5.47806 94.373 5.31715 94.4274 5.06219H94.6155ZM101.763 5.06219L101.832 7.89595H101.574C101.453 7.18542 101.154 6.61491 100.678 6.18441C100.206 5.74973 99.6936 5.5324 99.1419 5.5324C98.7156 5.5324 98.3771 5.64733 98.1263 5.87721C97.8797 6.10291 97.7564 6.36413 97.7564 6.66088C97.7564 6.84896 97.8003 7.01615 97.8881 7.16243C98.0093 7.35887 98.2036 7.55322 98.4711 7.74548C98.6676 7.88341 99.121 8.12792 99.8316 8.479C100.826 8.96801 101.497 9.42986 101.844 9.86453C102.187 10.2992 102.358 10.7966 102.358 11.3566C102.358 12.0672 102.08 12.6795 101.524 13.1936C100.973 13.7035 100.27 13.9584 99.4178 13.9584C99.1503 13.9584 98.8974 13.9313 98.6592 13.8769C98.421 13.8226 98.1221 13.7202 97.7627 13.5697C97.5621 13.4861 97.397 13.4443 97.2674 13.4443C97.1587 13.4443 97.0438 13.4861 96.9226 13.5697C96.8014 13.6533 96.7032 13.7808 96.6279 13.9522H96.396V10.7422H96.6279C96.8118 11.645 97.165 12.3347 97.6874 12.8111C98.2141 13.2834 98.7804 13.5196 99.3864 13.5196C99.8546 13.5196 100.227 13.3921 100.502 13.1371C100.782 12.8822 100.922 12.5854 100.922 12.2469C100.922 12.0463 100.868 11.8519 100.759 11.6638C100.655 11.4758 100.494 11.2981 100.277 11.1309C100.059 10.9596 99.6748 10.7381 99.1231 10.4664C98.3499 10.086 97.794 9.76213 97.4555 9.49464C97.1169 9.22715 96.8557 8.92831 96.6718 8.59812C96.4921 8.26793 96.4022 7.90431 96.4022 7.50725C96.4022 6.83016 96.6509 6.25337 97.1483 5.7769C97.6457 5.30043 98.2726 5.06219 99.0291 5.06219C99.3049 5.06219 99.5724 5.09563 99.8316 5.1625C100.028 5.21266 100.266 5.3067 100.546 5.44462C100.83 5.57837 101.029 5.64524 101.142 5.64524C101.251 5.64524 101.336 5.61181 101.399 5.54493C101.462 5.47806 101.52 5.31715 101.574 5.06219H101.763ZM112.12 5.06219L112.189 7.89595H111.931C111.81 7.18542 111.511 6.61491 111.035 6.18441C110.563 5.74973 110.051 5.5324 109.499 5.5324C109.073 5.5324 108.734 5.64733 108.483 5.87721C108.237 6.10291 108.113 6.36413 108.113 6.66088C108.113 6.84896 108.157 7.01615 108.245 7.16243C108.366 7.35887 108.561 7.55322 108.828 7.74548C109.025 7.88341 109.478 8.12792 110.189 8.479C111.183 8.96801 111.854 9.42986 112.201 9.86453C112.544 10.2992 112.715 10.7966 112.715 11.3566C112.715 12.0672 112.437 12.6795 111.881 13.1936C111.33 13.7035 110.627 13.9584 109.775 13.9584C109.507 13.9584 109.254 13.9313 109.016 13.8769C108.778 13.8226 108.479 13.7202 108.12 13.5697C107.919 13.4861 107.754 13.4443 107.624 13.4443C107.516 13.4443 107.401 13.4861 107.28 13.5697C107.158 13.6533 107.06 13.7808 106.985 13.9522H106.753V10.7422H106.985C107.169 11.645 107.522 12.3347 108.044 12.8111C108.571 13.2834 109.137 13.5196 109.743 13.5196C110.212 13.5196 110.584 13.3921 110.859 13.1371C111.139 12.8822 111.279 12.5854 111.279 12.2469C111.279 12.0463 111.225 11.8519 111.116 11.6638C111.012 11.4758 110.851 11.2981 110.634 11.1309C110.416 10.9596 110.032 10.7381 109.48 10.4664C108.707 10.086 108.151 9.76213 107.812 9.49464C107.474 9.22715 107.213 8.92831 107.029 8.59812C106.849 8.26793 106.759 7.90431 106.759 7.50725C106.759 6.83016 107.008 6.25337 107.505 5.7769C108.003 5.30043 108.63 5.06219 109.386 5.06219C109.662 5.06219 109.929 5.09563 110.189 5.1625C110.385 5.21266 110.623 5.3067 110.903 5.44462C111.187 5.57837 111.386 5.64524 111.499 5.64524C111.608 5.64524 111.693 5.61181 111.756 5.54493C111.819 5.47806 111.877 5.31715 111.931 5.06219H112.12ZM116.734 5.74555V9.20625H116.903C117.442 9.20625 117.833 9.03697 118.075 8.69843C118.318 8.35988 118.473 7.86042 118.539 7.20005H118.778V11.6513H118.539C118.489 11.1665 118.383 10.7694 118.22 10.4601C118.061 10.1508 117.875 9.94394 117.662 9.83945C117.449 9.73079 117.139 9.67645 116.734 9.67645V12.0714C116.734 12.5395 116.753 12.8258 116.79 12.9303C116.832 13.0347 116.907 13.1204 117.016 13.1873C117.125 13.2542 117.3 13.2876 117.543 13.2876H118.05C118.844 13.2876 119.48 13.1037 119.956 12.7359C120.437 12.3681 120.782 11.808 120.991 11.0557H121.223L120.84 13.7578H113.493V13.5258H113.775C114.021 13.5258 114.22 13.482 114.37 13.3942C114.479 13.3357 114.563 13.2354 114.621 13.0933C114.667 12.9929 114.69 12.7296 114.69 12.3033V6.71104C114.69 6.32652 114.68 6.09037 114.659 6.0026C114.617 5.85631 114.54 5.74346 114.427 5.66405C114.268 5.54702 114.051 5.48851 113.775 5.48851H113.493V5.25654H120.608V7.77056H120.37C120.249 7.15616 120.077 6.71522 119.856 6.44772C119.639 6.18023 119.329 5.98379 118.928 5.8584C118.694 5.78317 118.255 5.74555 117.612 5.74555H116.734ZM125.21 9.88334V12.2657C125.21 12.7255 125.237 13.0159 125.291 13.1371C125.35 13.2542 125.45 13.3482 125.592 13.4193C125.735 13.4903 126 13.5258 126.389 13.5258V13.7578H122.038V13.5258C122.431 13.5258 122.696 13.4903 122.834 13.4193C122.976 13.344 123.074 13.2479 123.129 13.1309C123.187 13.0138 123.216 12.7255 123.216 12.2657V6.74865C123.216 6.2889 123.187 6.00051 123.129 5.88348C123.074 5.76227 122.976 5.66614 122.834 5.59509C122.692 5.52404 122.426 5.48851 122.038 5.48851V5.25654H125.987C127.016 5.25654 127.768 5.3276 128.244 5.4697C128.721 5.61181 129.11 5.87512 129.41 6.25964C129.711 6.63998 129.862 7.0872 129.862 7.60129C129.862 8.22823 129.636 8.74649 129.185 9.15609C128.896 9.41523 128.493 9.60958 127.975 9.73914L130.019 12.6168C130.286 12.9888 130.476 13.2207 130.589 13.3127C130.76 13.4423 130.959 13.5133 131.185 13.5258V13.7578H128.508L125.768 9.88334H125.21ZM125.21 5.71421V9.43821H125.567C126.148 9.43821 126.583 9.38597 126.871 9.28148C127.16 9.17281 127.385 8.98055 127.548 8.7047C127.716 8.42467 127.799 8.06104 127.799 7.61383C127.799 6.96599 127.647 6.48743 127.342 6.17814C127.041 5.86885 126.554 5.71421 125.881 5.71421H125.21ZM139.767 5.25654V5.48851C139.458 5.53867 139.182 5.70376 138.94 5.98379C138.764 6.19277 138.503 6.68387 138.156 7.45709L135.228 13.9522H135.022L132.106 7.19378C131.755 6.37876 131.519 5.9002 131.398 5.75809C131.281 5.61599 131.057 5.52613 130.727 5.48851V5.25654H134.802V5.48851H134.664C134.296 5.48851 134.046 5.53449 133.912 5.62644C133.816 5.68913 133.768 5.78108 133.768 5.90229C133.768 5.97752 133.784 6.06738 133.818 6.17187C133.851 6.27218 133.964 6.54594 134.156 6.99316L135.968 11.225L137.648 7.45709C137.849 7.00152 137.972 6.69641 138.018 6.54176C138.064 6.38712 138.087 6.25546 138.087 6.14679C138.087 6.02141 138.054 5.91065 137.987 5.81452C137.92 5.71839 137.822 5.64524 137.692 5.59509C137.513 5.52404 137.274 5.48851 136.978 5.48851V5.25654H139.767ZM144.607 13.5258V13.7578H140.162V13.5258H140.445C140.691 13.5258 140.89 13.482 141.04 13.3942C141.149 13.3357 141.232 13.2354 141.291 13.0933C141.337 12.9929 141.36 12.7296 141.36 12.3033V6.71104C141.36 6.27636 141.337 6.00469 141.291 5.89602C141.245 5.78735 141.151 5.69331 141.009 5.6139C140.871 5.53031 140.683 5.48851 140.445 5.48851H140.162V5.25654H144.607V5.48851H144.325C144.079 5.48851 143.88 5.5324 143.73 5.62017C143.621 5.67868 143.535 5.77899 143.473 5.9211C143.427 6.02141 143.404 6.28472 143.404 6.71104V12.3033C143.404 12.738 143.427 13.0097 143.473 13.1183C143.523 13.227 143.617 13.3231 143.755 13.4067C143.897 13.4861 144.087 13.5258 144.325 13.5258H144.607ZM153.479 5.06219V8.0088H153.234C153.05 7.23975 152.707 6.65043 152.206 6.24083C151.704 5.83124 151.136 5.62644 150.501 5.62644C149.97 5.62644 149.483 5.77899 149.04 6.0841C148.597 6.38921 148.273 6.78836 148.068 7.28155C147.805 7.91267 147.673 8.61484 147.673 9.38806C147.673 10.1487 147.769 10.8426 147.962 11.4695C148.154 12.0922 148.455 12.5645 148.864 12.8864C149.274 13.204 149.805 13.3628 150.457 13.3628C150.992 13.3628 151.481 13.2458 151.924 13.0118C152.371 12.7777 152.841 12.3744 153.334 11.8018V12.5353C152.858 13.0327 152.361 13.3942 151.842 13.6199C151.328 13.8414 150.726 13.9522 150.037 13.9522C149.13 13.9522 148.323 13.7704 147.617 13.4067C146.915 13.0431 146.371 12.5207 145.987 11.8394C145.606 11.1581 145.416 10.433 145.416 9.66391C145.416 8.85307 145.627 8.08403 146.049 7.35678C146.476 6.62954 147.048 6.06529 147.767 5.66405C148.49 5.26281 149.257 5.06219 150.068 5.06219C150.666 5.06219 151.297 5.19176 151.961 5.45089C152.346 5.60136 152.59 5.67659 152.695 5.67659C152.829 5.67659 152.944 5.62853 153.04 5.5324C153.14 5.43209 153.205 5.27535 153.234 5.06219H153.479ZM157.685 5.74555V9.20625H157.855C158.394 9.20625 158.785 9.03697 159.027 8.69843C159.269 8.35988 159.424 7.86042 159.491 7.20005H159.729V11.6513H159.491C159.441 11.1665 159.334 10.7694 159.171 10.4601C159.012 10.1508 158.826 9.94394 158.613 9.83945C158.4 9.73079 158.091 9.67645 157.685 9.67645V12.0714C157.685 12.5395 157.704 12.8258 157.742 12.9303C157.784 13.0347 157.859 13.1204 157.967 13.1873C158.076 13.2542 158.252 13.2876 158.494 13.2876H159.002C159.796 13.2876 160.431 13.1037 160.908 12.7359C161.388 12.3681 161.733 11.808 161.942 11.0557H162.174L161.792 13.7578H154.444V13.5258H154.726C154.973 13.5258 155.171 13.482 155.322 13.3942C155.43 13.3357 155.514 13.2354 155.573 13.0933C155.619 12.9929 155.642 12.7296 155.642 12.3033V6.71104C155.642 6.32652 155.631 6.09037 155.61 6.0026C155.568 5.85631 155.491 5.74346 155.378 5.66405C155.219 5.54702 155.002 5.48851 154.726 5.48851H154.444V5.25654H161.56V7.77056H161.322C161.2 7.15616 161.029 6.71522 160.807 6.44772C160.59 6.18023 160.281 5.98379 159.88 5.8584C159.646 5.78317 159.207 5.74555 158.563 5.74555H157.685ZM57.1497 20.2565V22.5574H56.924C56.7902 22.0266 56.6419 21.6463 56.4789 21.4164C56.3159 21.1823 56.0923 20.9963 55.808 20.8584C55.6492 20.7832 55.3713 20.7456 54.9742 20.7456H54.341V27.3033C54.341 27.738 54.364 28.0097 54.41 28.1183C54.4601 28.227 54.5542 28.3231 54.6921 28.4067C54.8342 28.4861 55.0265 28.5258 55.2689 28.5258H55.551V28.7578H51.0997V28.5258H51.3819C51.6285 28.5258 51.827 28.482 51.9775 28.3942C52.0861 28.3357 52.1718 28.2354 52.2345 28.0933C52.2805 27.9929 52.3035 27.7296 52.3035 27.3033V20.7456H51.6891C51.1165 20.7456 50.7006 20.8668 50.4415 21.1092C50.0778 21.4477 49.848 21.9305 49.7518 22.5574H49.5136V20.2565H57.1497ZM57.9145 20.2565H62.3031V20.4885H62.0837C61.7535 20.4885 61.5257 20.524 61.4003 20.5951C61.2791 20.662 61.1913 20.756 61.137 20.8772C61.0869 20.9984 61.0618 21.3014 61.0618 21.7863V25.9491C61.0618 26.7098 61.1182 27.2135 61.231 27.4601C61.3481 27.7066 61.5382 27.9114 61.8016 28.0745C62.0649 28.2375 62.3972 28.319 62.7984 28.319C63.2581 28.319 63.6489 28.2166 63.9708 28.0118C64.2968 27.8028 64.5392 27.5165 64.698 27.1529C64.861 26.7892 64.9425 26.156 64.9425 25.2532V21.7863C64.9425 21.4059 64.9028 21.1343 64.8234 20.9713C64.744 20.8082 64.6437 20.6954 64.5225 20.6327C64.3344 20.5366 64.069 20.4885 63.7263 20.4885V20.2565H66.6666V20.4885H66.4911C66.2528 20.4885 66.0543 20.5366 65.8955 20.6327C65.7366 20.7288 65.6217 20.873 65.5506 21.0653C65.4963 21.199 65.4691 21.4394 65.4691 21.7863V25.015C65.4691 26.0139 65.4023 26.7349 65.2685 27.1779C65.139 27.621 64.8192 28.0285 64.3093 28.4005C63.7994 28.7724 63.1035 28.9584 62.2216 28.9584C61.486 28.9584 60.9176 28.8602 60.5163 28.6638C59.9688 28.3963 59.5822 28.0536 59.3565 27.6356C59.1308 27.2176 59.018 26.6555 59.018 25.9491V21.7863C59.018 21.2973 58.9908 20.9942 58.9365 20.8772C58.8821 20.756 58.7881 20.6599 58.6543 20.5888C58.5206 20.5178 58.274 20.4843 57.9145 20.4885V20.2565ZM70.3028 24.8833V27.2657C70.3028 27.7255 70.33 28.0159 70.3843 28.1371C70.4428 28.2542 70.5432 28.3482 70.6853 28.4193C70.8274 28.4903 71.0928 28.5258 71.4815 28.5258V28.7578H67.1305V28.5258C67.5234 28.5258 67.7888 28.4903 67.9267 28.4193C68.0688 28.344 68.1671 28.2479 68.2214 28.1309C68.2799 28.0138 68.3092 27.7255 68.3092 27.2657V21.7487C68.3092 21.2889 68.2799 21.0005 68.2214 20.8835C68.1671 20.7623 68.0688 20.6661 67.9267 20.5951C67.7846 20.524 67.5192 20.4885 67.1305 20.4885V20.2565H71.0802C72.1084 20.2565 72.8607 20.3276 73.3372 20.4697C73.8137 20.6118 74.2024 20.8751 74.5033 21.2596C74.8042 21.64 74.9547 22.0872 74.9547 22.6013C74.9547 23.2282 74.729 23.7465 74.2776 24.1561C73.9892 24.4152 73.5859 24.6096 73.0676 24.7391L75.1114 27.6168C75.3789 27.9888 75.5691 28.2207 75.682 28.3127C75.8533 28.4423 76.0518 28.5133 76.2775 28.5258V28.7578H73.6005L70.8608 24.8833H70.3028ZM70.3028 20.7142V24.4382H70.6602C71.2411 24.4382 71.6758 24.386 71.9642 24.2815C72.2526 24.1728 72.4783 23.9806 72.6413 23.7047C72.8085 23.4247 72.8921 23.061 72.8921 22.6138C72.8921 21.966 72.7395 21.4874 72.4344 21.1781C72.1335 20.8689 71.6466 20.7142 70.9737 20.7142H70.3028ZM81.5187 23.5103L84.5092 27.2532C84.9314 27.7798 85.295 28.1371 85.6001 28.3252C85.8216 28.459 86.0557 28.5258 86.3023 28.5258V28.7578H81.8761V28.5258C82.1561 28.5008 82.3358 28.4569 82.4153 28.3942C82.4988 28.3315 82.5406 28.2542 82.5406 28.1622C82.5406 27.9867 82.3484 27.6565 81.9639 27.1717L80.0141 24.7203L79.7006 24.9837V27.3033C79.7006 27.7464 79.7257 28.0222 79.7758 28.1309C79.826 28.2395 79.9221 28.3336 80.0642 28.413C80.2063 28.4882 80.4341 28.5258 80.7476 28.5258V28.7578H76.4594V28.5258H76.7415C76.9881 28.5258 77.1866 28.482 77.3371 28.3942C77.4457 28.3357 77.5293 28.2354 77.5878 28.0933C77.6338 27.9929 77.6568 27.7296 77.6568 27.3033V21.711C77.6568 21.2764 77.6338 21.0047 77.5878 20.896C77.5419 20.7874 77.4478 20.6933 77.3057 20.6139C77.1678 20.5303 76.9797 20.4885 76.7415 20.4885H76.4594V20.2565H80.6912V20.4885C80.4028 20.4885 80.1834 20.5303 80.0329 20.6139C79.9242 20.6724 79.8385 20.7706 79.7758 20.9086C79.7257 21.013 79.7006 21.2805 79.7006 21.711V24.3567L82.8541 21.8051C83.293 21.4498 83.5124 21.1656 83.5124 20.9524C83.5124 20.7936 83.4225 20.6682 83.2428 20.5763C83.1509 20.5303 82.9231 20.501 82.5595 20.4885V20.2565H85.8759V20.4885C85.5792 20.5094 85.3451 20.5637 85.1738 20.6515C85.0066 20.7351 84.6179 21.0235 84.0077 21.5167L81.5187 23.5103ZM92.2832 25.8614L94.5904 20.2565H98.0511V20.4885H97.7752C97.5244 20.4885 97.3238 20.5324 97.1734 20.6202C97.0689 20.6787 96.9853 20.7769 96.9226 20.9148C96.8766 21.0151 96.8536 21.2764 96.8536 21.6985V27.3033C96.8536 27.738 96.8766 28.0097 96.9226 28.1183C96.9686 28.227 97.0626 28.3231 97.2047 28.4067C97.3468 28.4861 97.537 28.5258 97.7752 28.5258H98.0511V28.7578H93.6124V28.5258H93.8882C94.139 28.5258 94.3396 28.482 94.4901 28.3942C94.5946 28.3357 94.6781 28.2354 94.7408 28.0933C94.7868 27.9929 94.8098 27.7296 94.8098 27.3033V21.0026L91.5497 28.7578H91.3993L88.089 21.059V27.0463C88.089 27.4642 88.0995 27.7213 88.1204 27.8174C88.1747 28.0264 88.2917 28.1977 88.4715 28.3315C88.6554 28.4611 88.9417 28.5258 89.3304 28.5258V28.7578H86.4214V28.5258H86.5092C86.6972 28.53 86.8728 28.5008 87.0358 28.4381C87.1988 28.3712 87.3221 28.2834 87.4057 28.1748C87.4893 28.0661 87.5541 27.9135 87.6 27.7171C87.6084 27.6711 87.6126 27.458 87.6126 27.0776V21.6985C87.6126 21.268 87.5896 21.0005 87.5436 20.896C87.4976 20.7874 87.4036 20.6933 87.2615 20.6139C87.1194 20.5303 86.9292 20.4885 86.691 20.4885H86.4214V20.2565H89.8946L92.2832 25.8614ZM101.788 20.7456V24.2062H101.957C102.496 24.2062 102.887 24.037 103.129 23.6984C103.372 23.3599 103.526 22.8604 103.593 22.2H103.831V26.6513H103.593C103.543 26.1665 103.436 25.7694 103.273 25.4601C103.115 25.1508 102.929 24.9439 102.715 24.8395C102.502 24.7308 102.193 24.6765 101.788 24.6765V27.0714C101.788 27.5395 101.806 27.8258 101.844 27.9303C101.886 28.0347 101.961 28.1204 102.07 28.1873C102.178 28.2542 102.354 28.2876 102.596 28.2876H103.104C103.898 28.2876 104.534 28.1037 105.01 27.7359C105.491 27.3681 105.836 26.808 106.045 26.0557H106.276L105.894 28.7578H98.5464V28.5258H98.8285C99.0751 28.5258 99.2736 28.482 99.4241 28.3942C99.5327 28.3357 99.6163 28.2354 99.6748 28.0933C99.7208 27.9929 99.7438 27.7296 99.7438 27.3033V21.711C99.7438 21.3265 99.7334 21.0904 99.7125 21.0026C99.6707 20.8563 99.5933 20.7435 99.4805 20.6641C99.3217 20.547 99.1043 20.4885 98.8285 20.4885H98.5464V20.2565H105.662V22.7706H105.424C105.303 22.1562 105.131 21.7152 104.91 21.4477C104.692 21.1802 104.383 20.9838 103.982 20.8584C103.748 20.7832 103.309 20.7456 102.665 20.7456H101.788ZM110.051 20.2565L114.245 25.5291V21.874C114.245 21.3641 114.172 21.0193 114.025 20.8396C113.825 20.5972 113.488 20.4802 113.016 20.4885V20.2565H115.825V20.4885C115.465 20.5345 115.223 20.5951 115.097 20.6703C114.976 20.7414 114.88 20.8605 114.809 21.0277C114.742 21.1907 114.709 21.4728 114.709 21.874V28.9522H114.496L108.747 21.874V27.2782C108.747 27.7673 108.857 28.0974 109.079 28.2688C109.305 28.4402 109.562 28.5258 109.85 28.5258H110.051V28.7578H107.035V28.5258C107.503 28.5217 107.829 28.4255 108.013 28.2375C108.197 28.0494 108.289 27.7296 108.289 27.2782V21.2785L108.107 21.0528C107.927 20.8271 107.769 20.6787 107.631 20.6076C107.493 20.5366 107.294 20.4969 107.035 20.4885V20.2565H110.051ZM120.834 28.5258V28.7578H116.389V28.5258H116.671C116.918 28.5258 117.116 28.482 117.267 28.3942C117.375 28.3357 117.459 28.2354 117.517 28.0933C117.563 27.9929 117.586 27.7296 117.586 27.3033V21.711C117.586 21.2764 117.563 21.0047 117.517 20.896C117.471 20.7874 117.377 20.6933 117.235 20.6139C117.097 20.5303 116.909 20.4885 116.671 20.4885H116.389V20.2565H120.834V20.4885H120.552C120.305 20.4885 120.107 20.5324 119.956 20.6202C119.848 20.6787 119.762 20.779 119.699 20.9211C119.653 21.0214 119.63 21.2847 119.63 21.711V27.3033C119.63 27.738 119.653 28.0097 119.699 28.1183C119.749 28.227 119.843 28.3231 119.981 28.4067C120.123 28.4861 120.314 28.5258 120.552 28.5258H120.834ZM127.166 20.0622L127.235 22.8959H126.978C126.857 22.1854 126.558 21.6149 126.081 21.1844C125.609 20.7497 125.097 20.5324 124.545 20.5324C124.119 20.5324 123.781 20.6473 123.53 20.8772C123.283 21.1029 123.16 21.3641 123.16 21.6609C123.16 21.849 123.204 22.0161 123.292 22.1624C123.413 22.3589 123.607 22.5532 123.875 22.7455C124.071 22.8834 124.525 23.1279 125.235 23.479C126.23 23.968 126.901 24.4299 127.248 24.8645C127.59 25.2992 127.762 25.7966 127.762 26.3566C127.762 27.0672 127.484 27.6795 126.928 28.1936C126.376 28.7035 125.674 28.9584 124.821 28.9584C124.554 28.9584 124.301 28.9313 124.063 28.8769C123.824 28.8226 123.526 28.7202 123.166 28.5697C122.966 28.4861 122.8 28.4443 122.671 28.4443C122.562 28.4443 122.447 28.4861 122.326 28.5697C122.205 28.6533 122.107 28.7808 122.031 28.9522H121.799V25.7422H122.031C122.215 26.645 122.568 27.3347 123.091 27.8111C123.618 28.2834 124.184 28.5196 124.79 28.5196C125.258 28.5196 125.63 28.3921 125.906 28.1371C126.186 27.8822 126.326 27.5854 126.326 27.2469C126.326 27.0463 126.272 26.8519 126.163 26.6638C126.058 26.4758 125.898 26.2981 125.68 26.1309C125.463 25.9596 125.078 25.7381 124.527 25.4664C123.753 25.086 123.198 24.7621 122.859 24.4946C122.52 24.2271 122.259 23.9283 122.075 23.5981C121.896 23.2679 121.806 22.9043 121.806 22.5072C121.806 21.8302 122.054 21.2534 122.552 20.7769C123.049 20.3004 123.676 20.0622 124.433 20.0622C124.708 20.0622 124.976 20.0956 125.235 20.1625C125.432 20.2127 125.67 20.3067 125.95 20.4446C126.234 20.5784 126.433 20.6452 126.545 20.6452C126.654 20.6452 126.74 20.6118 126.802 20.5449C126.865 20.4781 126.924 20.3171 126.978 20.0622H127.166ZM136.382 20.2565V22.5574H136.156C136.023 22.0266 135.874 21.6463 135.711 21.4164C135.548 21.1823 135.325 20.9963 135.04 20.8584C134.882 20.7832 134.604 20.7456 134.207 20.7456H133.573V27.3033C133.573 27.738 133.596 28.0097 133.642 28.1183C133.692 28.227 133.786 28.3231 133.924 28.4067C134.067 28.4861 134.259 28.5258 134.501 28.5258H134.783V28.7578H130.332V28.5258H130.614C130.861 28.5258 131.059 28.482 131.21 28.3942C131.318 28.3357 131.404 28.2354 131.467 28.0933C131.513 27.9929 131.536 27.7296 131.536 27.3033V20.7456H130.921C130.349 20.7456 129.933 20.8668 129.674 21.1092C129.31 21.4477 129.08 21.9305 128.984 22.5574H128.746V20.2565H136.382ZM141.235 26.3378H138.231L137.874 27.1654C137.757 27.4412 137.699 27.669 137.699 27.8488C137.699 28.087 137.795 28.2625 137.987 28.3754C138.1 28.4423 138.378 28.4924 138.821 28.5258V28.7578H135.993V28.5258C136.298 28.4799 136.549 28.3545 136.746 28.1497C136.942 27.9407 137.184 27.5123 137.473 26.8645L140.514 20.081H140.633L143.698 27.0525C143.991 27.7129 144.231 28.1288 144.419 28.3001C144.561 28.4297 144.762 28.5049 145.021 28.5258V28.7578H140.909V28.5258H141.078C141.408 28.5258 141.64 28.4799 141.774 28.3879C141.866 28.321 141.912 28.2249 141.912 28.0995C141.912 28.0243 141.899 27.947 141.874 27.8676C141.866 27.8299 141.803 27.6732 141.686 27.3974L141.235 26.3378ZM141.021 25.8739L139.755 22.9461L138.451 25.8739H141.021ZM148.369 20.2565L152.563 25.5291V21.874C152.563 21.3641 152.49 21.0193 152.344 20.8396C152.143 20.5972 151.807 20.4802 151.334 20.4885V20.2565H154.143V20.4885C153.784 20.5345 153.541 20.5951 153.416 20.6703C153.295 20.7414 153.199 20.8605 153.128 21.0277C153.061 21.1907 153.027 21.4728 153.027 21.874V28.9522H152.814L147.065 21.874V27.2782C147.065 27.7673 147.176 28.0974 147.397 28.2688C147.623 28.4402 147.88 28.5258 148.168 28.5258H148.369V28.7578H145.353V28.5258C145.822 28.5217 146.148 28.4255 146.332 28.2375C146.515 28.0494 146.607 27.7296 146.607 27.2782V21.2785L146.426 21.0528C146.246 20.8271 146.087 20.6787 145.949 20.6076C145.811 20.5366 145.613 20.4969 145.353 20.4885V20.2565H148.369Z" fill="white"/>
<defs>
<clipPath id="clip0_99_68">
<rect width="33" height="28.1303" fill="white"/>
</clipPath>
</defs>
</svg>
